<svg width="218" height="218" viewBox="0 0 218 218" fill="none" xmlns="http://www.w3.org/2000/svg">
<ellipse cx="109" cy="109" rx="62.8625" ry="62.8625" stroke="url(#paint0_linear_18_657)" stroke-width="2.66667"/>
<ellipse cx="109" cy="109" rx="62.8625" ry="62.8625" fill="white" stroke="url(#paint1_linear_18_657)" stroke-width="2.66667"/>
<ellipse cx="109" cy="109" rx="84.2625" ry="84.2625" stroke="url(#paint2_linear_18_657)" stroke-width="2.66667"/>
<ellipse cx="109" cy="109" rx="107" ry="107" stroke="url(#paint3_linear_18_657)" stroke-width="2.66667"/>
<ellipse cx="191.925" cy="26.075" rx="24.075" ry="24.075" fill="white"/>
<ellipse cx="191.925" cy="26.075" rx="24.075" ry="24.075" fill="url(#paint4_linear_18_657)"/>
<path d="M180.241 29.8003C179.641 30.3604 180.09 31.4513 180.913 31.4228H186.587C186.839 31.4228 187.081 31.3227 187.259 31.1445C187.438 30.9663 187.538 30.7246 187.538 30.4725C187.538 30.2205 187.438 29.9787 187.259 29.8005C187.081 29.6223 186.839 29.5222 186.587 29.5222H183.209L186.004 26.7314C189.039 23.518 184.495 18.9811 181.278 22.0076L180.241 23.0422C179.373 23.9418 180.683 25.2533 181.584 24.3872L182.62 23.3526C183.399 22.5214 184.92 23.008 185.064 24.1395C185.102 24.3645 185.085 24.5952 185.015 24.8122C184.944 25.0292 184.823 25.2261 184.661 25.3863L180.241 29.8003Z" fill="white"/>
<path d="M191.225 31.4229C191.477 31.4229 191.719 31.3228 191.897 31.1445C192.075 30.9663 192.175 30.7246 192.175 30.4726V28.0733C192.427 28.0742 192.67 27.975 192.848 27.7974C193.027 27.6198 193.128 27.3785 193.129 27.1264C193.13 26.8744 193.031 26.6323 192.853 26.4534C192.676 26.2746 192.434 26.1736 192.182 26.1726L192.175 21.4622C192.176 21.2582 192.11 21.0595 191.988 20.8957C191.867 20.7318 191.696 20.6114 191.501 20.5522C191.306 20.493 191.096 20.4982 190.904 20.567C190.712 20.6359 190.548 20.7647 190.434 20.9344L186.624 26.6377C186.196 27.2364 186.677 28.1392 187.414 28.1157C187.412 28.1208 190.273 28.0866 190.275 28.0904V30.4726C190.275 30.7246 190.375 30.9663 190.553 31.1445C190.731 31.3228 190.973 31.4229 191.225 31.4229ZM189.203 26.1992L190.275 24.5951V26.1897L189.203 26.1992ZM199.316 30.4726C199.335 31.7188 201.195 31.7245 201.216 30.4726V27.434C201.216 26.4666 202.695 23.6517 203.745 21.9601C204.144 21.3602 203.66 20.4859 202.938 20.5093H198.429C198.103 20.5093 197.816 20.6734 197.645 20.9237L197.974 19.6661C198.011 19.544 198.022 19.4158 198.008 19.2892C197.994 19.1626 197.954 19.0402 197.892 18.9292C197.829 18.8182 197.745 18.7208 197.644 18.6429C197.544 18.5651 197.428 18.5083 197.305 18.4759C197.182 18.4435 197.053 18.4363 196.927 18.4545C196.801 18.4728 196.68 18.5162 196.571 18.5822C196.462 18.6482 196.368 18.7354 196.293 18.8386C196.218 18.9419 196.165 19.0591 196.137 19.1833L192.646 32.4841C192.35 33.6891 194.139 34.1776 194.483 32.9669L197.486 21.5287C197.522 22.0203 197.928 22.4093 198.429 22.4093H201.276C200.429 23.9223 199.316 26.1568 199.316 27.434V30.4726Z" fill="white"/>
<path d="M204.737 38.8017C207.991 35.5338 210.005 31.0356 210.005 26.0749C210.005 25.8228 209.905 25.5811 209.726 25.4029C209.548 25.2247 209.306 25.1245 209.054 25.1245H206.916C206.664 25.1245 206.422 25.2247 206.244 25.4029C206.066 25.5811 205.966 25.8228 205.966 26.0749C205.966 26.3269 206.066 26.5686 206.244 26.7468C206.422 26.9251 206.664 27.0252 206.916 27.0252H208.074C207.855 30.7657 206.357 34.1666 204.01 36.8003L203.197 35.9881C203.019 35.8099 202.777 35.71 202.525 35.7103C202.273 35.7105 202.031 35.8109 201.853 35.9893C201.675 36.1678 201.575 36.4097 201.575 36.6618C201.575 36.9139 201.676 37.1556 201.854 37.3337L202.665 38.1434C199.952 40.56 196.502 41.9894 192.875 42.2V40.5135C192.875 40.2615 192.775 40.0198 192.597 39.8415C192.419 39.6633 192.177 39.5632 191.925 39.5632C191.673 39.5632 191.431 39.6633 191.253 39.8415C191.075 40.0198 190.975 40.2615 190.975 40.5135V42.2C187.348 41.9894 183.898 40.56 181.185 38.1434L181.996 37.3337C182.868 36.4277 181.546 35.1239 180.653 35.9887L179.84 36.8003C177.493 34.1666 175.994 30.7657 175.776 27.0252H176.933C177.185 27.0252 177.427 26.9251 177.605 26.7468C177.783 26.5686 177.884 26.3269 177.884 26.0749C177.884 25.8228 177.783 25.5811 177.605 25.4029C177.427 25.2247 177.185 25.1245 176.933 25.1245H175.776C175.994 21.384 177.493 17.9831 179.839 15.3495L180.652 16.1617C180.831 16.3398 181.072 16.4397 181.325 16.4395C181.577 16.4392 181.818 16.3388 181.997 16.1604C182.175 15.982 182.275 15.7401 182.274 15.4879C182.274 15.2358 182.174 14.9941 181.995 14.816L181.184 14.0063C183.897 11.5896 187.347 10.1601 190.975 9.94968V11.104C190.975 11.3561 191.075 11.5978 191.253 11.776C191.431 11.9542 191.673 12.0543 191.925 12.0543C192.177 12.0543 192.419 11.9542 192.597 11.776C192.775 11.5978 192.875 11.3561 192.875 11.104V9.94968C196.029 10.1255 199.061 11.2286 201.59 13.1206L200.293 13.1764C200.167 13.1802 200.043 13.209 199.929 13.2611C199.814 13.3131 199.711 13.3873 199.626 13.4795C199.54 13.5717 199.474 13.6799 199.43 13.7979C199.387 13.916 199.367 14.0414 199.373 14.1671C199.378 14.2928 199.408 14.4161 199.462 14.53C199.515 14.6438 199.591 14.746 199.684 14.8304C199.777 14.9149 199.886 14.98 200.005 15.022C200.123 15.064 200.249 15.0821 200.375 15.0751L204.023 14.918C204.559 14.9395 205.037 14.4618 205.001 13.9233L204.836 10.2113C204.766 8.97591 202.907 9.0361 202.938 10.2956L203.005 11.8136C196.051 6.18258 185.152 7.0138 179.113 13.3487C172.117 20.1119 172.157 32.0866 179.14 38.8422C185.977 45.8525 197.935 45.8588 204.737 38.8017Z" fill="white"/>
<path d="M129.969 89.9374L129.672 86.3018C128.761 75.4451 119.873 67.2561 109 67.2561C98.1265 67.2561 89.2392 75.4451 88.3256 86.308L88.0309 89.9374C86.4314 91.1437 85.4509 93.0503 85.4509 95.0866V99.3683C85.4509 100.813 85.9632 102.226 86.881 103.382L85.5617 135.762H132.438L131.119 103.382C132.037 102.226 132.549 100.813 132.549 99.3683V95.0866C132.549 93.0503 131.568 91.1437 129.969 89.9374Z" fill="url(#paint5_linear_18_657)"/>
<path d="M129.969 89.9374L129.672 86.3018C128.761 75.4451 119.873 67.2561 109 67.2561C98.1265 67.2561 89.2392 75.4451 88.3256 86.308L88.0309 89.9374C86.4314 91.1437 85.4509 93.0503 85.4509 95.0866V99.3683C85.4509 100.813 85.9632 102.226 86.881 103.382L85.5617 135.762H132.438L131.119 103.382C132.037 102.226 132.549 100.813 132.549 99.3683V95.0866C132.549 93.0503 131.568 91.1437 129.969 89.9374Z" fill="url(#paint6_linear_18_657)"/>
<path d="M94.0142 99.3684V90.8051C94.0142 90.0212 94.1308 89.3445 94.2425 88.6643H91.8734C88.3319 88.6643 85.4509 91.5453 85.4509 95.0867V99.3684C85.4509 102.91 88.3319 105.791 91.8734 105.791H95.534C95.3129 105.312 109.868 107.932 110.582 104.335C110.297 98.0839 94.0142 101.166 94.0142 99.3684ZM126.126 88.6643H123.986V99.3684C123.986 100.52 123.842 101.64 123.58 102.719C123.335 103.791 122.952 104.808 122.483 105.785C122.482 105.787 122.482 105.789 122.481 105.791H126.126C129.668 105.791 132.549 102.91 132.549 99.3684V95.0867C132.549 91.5453 129.668 88.6643 126.126 88.6643Z" fill="url(#paint7_linear_18_657)"/>
<path d="M117.563 114.782V111.614C121.588 108.83 123.986 104.335 123.986 99.3683V88.6642C114.052 90.077 106.431 80.9573 106.345 80.8716C105.96 80.4007 105.361 80.101 104.718 80.101C101.036 80.101 94.0143 82.3275 94.0143 90.805V99.3683C94.0143 100.096 94.0571 100.824 94.1854 101.509H106.859C108.058 101.509 109 102.451 109 103.65C109 104.849 108.058 105.791 106.859 105.791H95.5127C96.5832 108.146 98.253 110.158 100.437 111.657V114.782L109 125.058L117.563 114.782ZM141.026 137.389L138.671 127.97C137.644 123.945 134.989 120.477 131.393 118.464C130.108 117.779 128.824 117.266 127.411 116.966L117.563 114.782L123.558 119.92C124.499 120.648 124.714 121.975 123.986 122.917L117.563 131.481C117.135 132.037 116.493 132.337 115.85 132.337C115.422 132.337 114.951 132.208 114.566 131.909L109 127.713L103.434 131.909C103.048 132.208 102.62 132.337 102.149 132.337H101.85C101.293 132.251 100.779 131.951 100.437 131.481L94.0142 122.917C93.2864 121.975 93.5004 120.648 94.4422 119.92L100.437 114.782L90.6318 116.966C89.1759 117.266 87.8916 117.779 86.6071 118.464C83.0106 120.477 80.3559 123.945 79.2855 127.97L76.9736 137.389C76.8022 138.031 76.9308 138.716 77.3588 139.23C77.7443 139.744 78.3864 140.044 79.0286 140.044H138.971C139.614 140.044 140.256 139.744 140.641 139.23C141.069 138.716 141.198 138.031 141.026 137.389Z" fill="url(#paint8_linear_18_657)"/>
<rect x="2" y="167.85" width="48.15" height="48.15" rx="24.075" fill="url(#paint9_linear_18_657)"/>
<path fill-rule="evenodd" clip-rule="evenodd" d="M26.0577 178.383C29.6391 178.383 33.0769 179.791 35.6294 182.303C37.5402 184.191 38.8449 186.605 39.3769 189.238C39.9089 191.87 39.6441 194.602 38.6162 197.083C37.9338 198.731 36.932 200.227 35.6684 201.486C33.6668 203.495 31.0841 204.825 28.2855 205.287C25.487 205.748 22.6141 205.319 20.0729 204.059L15.0823 204.663C14.8417 204.695 14.597 204.672 14.3672 204.594C14.1373 204.516 13.9285 204.386 13.7569 204.215C13.5853 204.043 13.4555 203.834 13.3777 203.604C13.2999 203.374 13.2762 203.13 13.3083 202.889L13.9126 197.899C12.6526 195.357 12.2231 192.485 12.6849 189.686C13.1467 186.887 14.4763 184.305 16.4859 182.303C19.0385 179.791 22.4763 178.383 26.0577 178.383ZM26.0794 193.383C26.8844 193.383 27.537 192.73 27.537 191.925C27.537 191.12 26.8844 190.468 26.0794 190.468C25.2744 190.468 24.6218 191.12 24.6218 191.925C24.6218 192.73 25.2744 193.383 26.0794 193.383ZM22.4274 191.925C22.4274 192.73 21.7748 193.383 20.9697 193.383C20.1648 193.383 19.5122 192.73 19.5122 191.925C19.5122 191.12 20.1648 190.468 20.9697 190.468C21.7748 190.468 22.4274 191.12 22.4274 191.925ZM31.1792 193.383C31.9842 193.383 32.6369 192.73 32.6369 191.925C32.6369 191.12 31.9842 190.468 31.1792 190.468C30.3742 190.468 29.7216 191.12 29.7216 191.925C29.7216 192.73 30.3742 193.383 31.1792 193.383Z" fill="white"/>
<defs>
<linearGradient id="paint0_linear_18_657" x1="-14.1416" y1="51.0264" x2="171.863" y2="51.0264" gradientUnits="userSpaceOnUse">
<stop stop-color="#00C0FF"/>
<stop offset="1" stop-color="#5558FF"/>
</linearGradient>
<linearGradient id="paint1_linear_18_657" x1="-14.1416" y1="51.0264" x2="171.863" y2="51.0264" gradientUnits="userSpaceOnUse">
<stop stop-color="#00C0FF"/>
<stop offset="1" stop-color="#5558FF"/>
</linearGradient>
<linearGradient id="paint2_linear_18_657" x1="-56.062" y1="31.2907" x2="193.263" y2="31.2907" gradientUnits="userSpaceOnUse">
<stop stop-color="#00C0FF"/>
<stop offset="1" stop-color="#5558FF"/>
</linearGradient>
<linearGradient id="paint3_linear_18_657" x1="-100.603" y1="10.3216" x2="216" y2="10.3216" gradientUnits="userSpaceOnUse">
<stop stop-color="#00C0FF"/>
<stop offset="1" stop-color="#5558FF"/>
</linearGradient>
<linearGradient id="paint4_linear_18_657" x1="144.765" y1="3.87236" x2="216" y2="3.87236" gradientUnits="userSpaceOnUse">
<stop stop-color="#00C0FF"/>
<stop offset="1" stop-color="#5558FF"/>
</linearGradient>
<linearGradient id="paint5_linear_18_657" x1="109" y1="135.762" x2="109" y2="67.2561" gradientUnits="userSpaceOnUse">
<stop stop-color="#5558FF"/>
<stop offset="1" stop-color="#00C0FF"/>
</linearGradient>
<linearGradient id="paint6_linear_18_657" x1="62.8698" y1="69.92" x2="132.549" y2="69.92" gradientUnits="userSpaceOnUse">
<stop stop-color="#00C0FF"/>
<stop offset="1" stop-color="#5558FF"/>
</linearGradient>
<linearGradient id="paint7_linear_18_657" x1="109" y1="106.267" x2="109" y2="88.6643" gradientUnits="userSpaceOnUse">
<stop stop-color="#5558FF"/>
<stop offset="1" stop-color="#00C0FF"/>
</linearGradient>
<linearGradient id="paint8_linear_18_657" x1="109" y1="140.044" x2="109" y2="80.1011" gradientUnits="userSpaceOnUse">
<stop stop-color="#ADDCFF"/>
<stop offset="0.503" stop-color="#EAF6FF"/>
<stop offset="1" stop-color="#EAF6FF"/>
</linearGradient>
<linearGradient id="paint9_linear_18_657" x1="-21.0856" y1="169.722" x2="50.15" y2="169.722" gradientUnits="userSpaceOnUse">
<stop stop-color="#00C0FF"/>
<stop offset="1" stop-color="#5558FF"/>
</linearGradient>
</defs>
</svg>
