<svg width="20" height="16" viewBox="0 0 20 16" fill="none" xmlns="http://www.w3.org/2000/svg">
<path d="M2.00001 16C1.45001 16 0.979172 15.8042 0.587503 15.4125C0.195834 15.0208 0 14.55 0 14V2C0 1.45 0.195834 0.979167 0.587503 0.5875C0.979172 0.195833 1.45001 0 2.00001 0H18.0001C18.5501 0 19.0209 0.195833 19.4126 0.5875C19.8043 0.979167 20.0001 1.45 20.0001 2V14C20.0001 14.55 19.8043 15.0208 19.4126 15.4125C19.0209 15.8042 18.5501 16 18.0001 16H2.00001ZM10 8.825C10.0834 8.825 10.1709 8.8125 10.2626 8.7875C10.3542 8.7625 10.4417 8.725 10.5251 8.675L17.6001 4.25C17.7334 4.16667 17.8334 4.0625 17.9001 3.9375C17.9668 3.8125 18.0001 3.675 18.0001 3.525C18.0001 3.19167 17.8584 2.94167 17.5751 2.775C17.2918 2.60833 17.0001 2.61667 16.7001 2.8L10 7L3.30002 2.8C3.00001 2.61667 2.70835 2.6125 2.42501 2.7875C2.14168 2.9625 2.00001 3.20833 2.00001 3.525C2.00001 3.69167 2.03334 3.8375 2.10001 3.9625C2.16668 4.0875 2.26668 4.18333 2.40001 4.25L9.47505 8.675C9.55838 8.725 9.64588 8.7625 9.73755 8.7875C9.82922 8.8125 9.91671 8.825 10 8.825Z" fill="#1F6BDD"/>
</svg>
