<svg width="18" height="12" viewBox="0 0 18 12" fill="none" xmlns="http://www.w3.org/2000/svg">
<path d="M13.7057 7.07855H1.67875C1.37313 7.07855 1.11695 6.97519 0.91021 6.76847C0.703468 6.56175 0.600098 6.30559 0.600098 6C0.600098 5.69441 0.703468 5.43825 0.91021 5.23153C1.11695 5.02481 1.37313 4.92144 1.67875 4.92144H13.7057L10.6316 1.84756C10.4158 1.63185 10.3125 1.38019 10.3214 1.09257C10.3304 0.804959 10.4338 0.553297 10.6316 0.337586C10.8473 0.121875 11.1035 0.00952533 11.4001 0.00053737C11.6967 -0.00845059 11.9529 0.0949109 12.1686 0.310622L17.1035 5.24501C17.2113 5.35287 17.2877 5.46971 17.3327 5.59554C17.3776 5.72137 17.4001 5.85619 17.4001 6C17.4001 6.14381 17.3776 6.27863 17.3327 6.40446C17.2877 6.53029 17.2113 6.64713 17.1035 6.75499L12.1686 11.6894C11.9529 11.9051 11.6967 12.0084 11.4001 11.9995C11.1035 11.9905 10.8473 11.8781 10.6316 11.6624C10.4338 11.4467 10.3304 11.195 10.3214 10.9074C10.3125 10.6198 10.4158 10.3681 10.6316 10.1524L13.7057 7.07855Z" fill="white"/>
</svg>
