<svg width="16" height="20" viewBox="0 0 16 20" fill="none" xmlns="http://www.w3.org/2000/svg">
<path d="M11.75 12.6487V18.4377C11.75 18.7034 11.6601 18.926 11.4804 19.1057C11.3008 19.2854 11.0781 19.3752 10.8125 19.3752C10.5469 19.3752 10.3242 19.2854 10.1445 19.1057C9.96482 18.926 9.87498 18.7034 9.87498 18.4377V12.6487L8.11717 14.4065C7.94529 14.5784 7.73045 14.6643 7.47264 14.6643C7.21482 14.6643 6.99217 14.5784 6.80467 14.4065C6.61717 14.219 6.52342 13.9963 6.52342 13.7385C6.52342 13.4807 6.61717 13.2581 6.80467 13.0706L10.1562 9.71899C10.25 9.62524 10.3515 9.55884 10.4609 9.51978C10.5703 9.48071 10.6875 9.46118 10.8125 9.46118C10.9375 9.46118 11.0547 9.48071 11.164 9.51978C11.2734 9.55884 11.375 9.62524 11.4687 9.71899L14.8437 13.094C15.0312 13.2815 15.1211 13.5002 15.1133 13.7502C15.1054 14.0002 15.0078 14.219 14.8203 14.4065C14.6328 14.5784 14.414 14.6682 14.164 14.676C13.914 14.6838 13.6953 14.594 13.5078 14.4065L11.75 12.6487ZM6.12498 7.35181L7.88279 5.59399C8.05467 5.42212 8.26951 5.33618 8.52732 5.33618C8.78514 5.33618 9.00779 5.42212 9.19529 5.59399C9.38279 5.78149 9.47654 6.00415 9.47654 6.26196C9.47654 6.51978 9.38279 6.74243 9.19529 6.92993L5.84373 10.2815C5.74998 10.3752 5.64842 10.4417 5.53904 10.4807C5.42967 10.5198 5.31248 10.5393 5.18748 10.5393C5.06248 10.5393 4.94529 10.5198 4.83592 10.4807C4.72654 10.4417 4.62498 10.3752 4.53123 10.2815L1.15623 6.90649C0.96873 6.71899 0.878887 6.50024 0.886699 6.25024C0.894512 6.00024 0.992168 5.78149 1.17967 5.59399C1.36717 5.42212 1.58592 5.33228 1.83592 5.32446C2.08592 5.31665 2.30467 5.40649 2.49217 5.59399L4.24998 7.35181V1.56274C4.24998 1.29712 4.33982 1.07446 4.51951 0.894776C4.6992 0.715088 4.92186 0.625244 5.18748 0.625244C5.45311 0.625244 5.67576 0.715088 5.85545 0.894776C6.03514 1.07446 6.12498 1.29712 6.12498 1.56274V7.35181Z" fill="white"/>
</svg>
