<svg width="328" height="39" viewBox="0 0 328 39" fill="none" xmlns="http://www.w3.org/2000/svg">
<path d="M317.197 30.7599C314.878 30.7599 312.877 30.2914 311.192 29.3544C309.508 28.4174 308.214 27.0856 307.311 25.3589C306.422 23.6187 305.977 21.5641 305.977 19.1948C305.977 16.8925 306.422 14.8713 307.311 13.1312C308.214 11.3911 309.481 10.0325 311.112 9.05531C312.756 8.07817 314.683 7.5896 316.893 7.5896C318.389 7.5896 319.784 7.83054 321.078 8.31242C322.372 8.78091 323.504 9.49034 324.474 10.4407C325.445 11.3777 326.199 12.5623 326.738 13.9946C327.277 15.4134 327.547 17.0799 327.547 18.994V20.6806H308.463V16.8457H324.515L321.604 17.8496C321.604 16.7118 321.428 15.7213 321.078 14.878C320.728 14.0347 320.202 13.3855 319.501 12.9304C318.814 12.4619 317.958 12.2277 316.934 12.2277C315.909 12.2277 315.04 12.4619 314.326 12.9304C313.625 13.3989 313.086 14.0347 312.709 14.8378C312.331 15.641 312.143 16.5646 312.143 17.6086V20.3192C312.143 21.5373 312.358 22.5814 312.79 23.4514C313.221 24.3081 313.821 24.9707 314.589 25.4392C315.37 25.8943 316.267 26.1218 317.277 26.1218C317.978 26.1218 318.612 26.0214 319.178 25.8207C319.744 25.6199 320.229 25.3254 320.633 24.9372C321.051 24.549 321.361 24.0805 321.563 23.5317L327.345 23.9132C327.062 25.2919 326.469 26.4966 325.566 27.5273C324.676 28.5446 323.524 29.341 322.109 29.9166C320.694 30.4788 319.056 30.7599 317.197 30.7599Z" fill="white"/>
<path d="M288.652 17.3476V30.3182H282.405V7.8707H288.551V11.8663H288.773C289.285 10.5411 290.101 9.49703 291.219 8.73406C292.338 7.97109 293.74 7.5896 295.424 7.5896C296.988 7.5896 298.349 7.93093 299.508 8.61359C300.68 9.29625 301.59 10.2667 302.237 11.5249C302.884 12.7832 303.207 14.289 303.207 16.0425V30.3182H296.961V17.1468C296.961 15.7815 296.603 14.7107 295.889 13.9343C295.175 13.1446 294.191 12.7497 292.938 12.7497C292.102 12.7497 291.361 12.9371 290.714 13.3119C290.067 13.6733 289.562 14.1953 289.198 14.878C288.834 15.5607 288.652 16.3839 288.652 17.3476Z" fill="white"/>
<path d="M268.517 30.7599C266.239 30.7599 264.265 30.278 262.594 29.3143C260.936 28.3371 259.656 26.9852 258.753 25.2585C257.863 23.5183 257.418 21.4971 257.418 19.1948C257.418 16.8658 257.863 14.8378 258.753 13.1111C259.656 11.371 260.936 10.0191 262.594 9.05531C264.265 8.07817 266.239 7.5896 268.517 7.5896C270.808 7.5896 272.782 8.07817 274.44 9.05531C276.111 10.0191 277.392 11.371 278.281 13.1111C279.184 14.8378 279.636 16.8658 279.636 19.1948C279.636 21.4971 279.184 23.5183 278.281 25.2585C277.392 26.9852 276.111 28.3371 274.44 29.3143C272.782 30.278 270.808 30.7599 268.517 30.7599ZM268.557 25.901C269.595 25.901 270.464 25.6132 271.165 25.0376C271.866 24.4486 272.392 23.6455 272.742 22.6282C273.106 21.6109 273.288 20.4531 273.288 19.1547C273.288 17.8429 273.106 16.685 272.742 15.6811C272.392 14.6772 271.866 13.8875 271.165 13.3119C270.464 12.7363 269.595 12.4485 268.557 12.4485C267.506 12.4485 266.623 12.7363 265.909 13.3119C265.208 13.8875 264.676 14.6772 264.312 15.6811C263.962 16.685 263.786 17.8429 263.786 19.1547C263.786 20.4531 263.962 21.6109 264.312 22.6282C264.676 23.6455 265.208 24.4486 265.909 25.0376C266.623 25.6132 267.506 25.901 268.557 25.901Z" fill="white"/>
<path d="M236.556 30.3178V26.6034L247.614 13.0104V12.8498H236.92V7.87036H255.134V11.9462L244.764 25.1778V25.3384H255.518V30.3178H236.556Z" fill="white"/>
<path d="M211.933 38.7109V7.8707H218.079V11.6655H218.362C218.645 11.0498 219.049 10.4273 219.575 9.79821C220.1 9.16909 220.788 8.64705 221.637 8.2321C222.486 7.80377 223.537 7.5896 224.79 7.5896C226.448 7.5896 227.964 8.01794 229.339 8.87461C230.727 9.71789 231.839 10.9962 232.674 12.7096C233.51 14.4229 233.928 16.5646 233.928 19.1346C233.928 21.6243 233.524 23.7325 232.715 25.4592C231.906 27.1726 230.808 28.471 229.42 29.3544C228.045 30.2379 226.495 30.6796 224.77 30.6796C223.557 30.6796 222.526 30.4788 221.677 30.0772C220.828 29.6757 220.134 29.1737 219.595 28.5714C219.069 27.9556 218.658 27.3399 218.362 26.7242H218.18V38.7109H211.933ZM222.789 25.7403C223.813 25.7403 224.676 25.4592 225.377 24.8971C226.077 24.3349 226.61 23.5585 226.974 22.568C227.338 21.5641 227.519 20.4129 227.519 19.1145C227.519 17.8161 227.338 16.6784 226.974 15.7012C226.623 14.7107 226.098 13.9343 225.397 13.3721C224.696 12.8099 223.827 12.5288 222.789 12.5288C221.778 12.5288 220.916 12.8033 220.201 13.3521C219.501 13.8875 218.961 14.6505 218.584 15.641C218.22 16.6181 218.038 17.776 218.038 19.1145C218.038 20.4397 218.227 21.5975 218.604 22.5881C218.982 23.5786 219.521 24.3549 220.222 24.9171C220.936 25.4659 221.792 25.7403 222.789 25.7403Z" fill="white"/>
<path d="M195.558 30.7398C194.13 30.7398 192.843 30.4922 191.697 29.9969C190.565 29.4883 189.675 28.7387 189.028 27.7482C188.382 26.7576 188.058 25.5262 188.058 24.0538C188.058 22.7955 188.287 21.7515 188.745 20.9216C189.204 20.0783 189.83 19.3956 190.626 18.8736C191.421 18.3515 192.324 17.9567 193.334 17.689C194.345 17.4213 195.417 17.2339 196.549 17.1268C197.856 17.0063 198.907 16.8858 199.702 16.7654C200.498 16.6449 201.077 16.4642 201.441 16.2232C201.818 15.9689 202.007 15.6075 202.007 15.139V15.0386C202.007 14.115 201.71 13.3989 201.117 12.8903C200.538 12.3816 199.716 12.1273 198.651 12.1273C197.533 12.1273 196.636 12.3749 195.962 12.8702C195.302 13.3521 194.864 13.9678 194.648 14.7174L188.847 14.2556C189.143 12.8903 189.723 11.7123 190.585 10.7218C191.448 9.71789 192.559 8.94823 193.921 8.41281C195.295 7.864 196.886 7.5896 198.692 7.5896C199.945 7.5896 201.144 7.73684 202.29 8.03132C203.436 8.3258 204.453 8.78091 205.343 9.39664C206.246 9.99899 206.96 10.782 207.485 11.7458C208.011 12.7096 208.274 13.854 208.274 15.1792V30.3182H202.31V27.186H202.149C201.785 27.8954 201.299 28.5178 200.693 29.0533C200.086 29.5753 199.359 29.9902 198.51 30.2981C197.661 30.5926 196.677 30.7398 195.558 30.7398ZM197.357 26.4431C198.274 26.4431 199.082 26.2624 199.783 25.901C200.498 25.5262 201.05 25.0309 201.441 24.4152C201.845 23.7861 202.047 23.0833 202.047 22.307V19.9176C201.859 20.0381 201.589 20.1519 201.239 20.259C200.902 20.3661 200.524 20.4598 200.107 20.5401C199.689 20.6204 199.271 20.694 198.853 20.7609C198.436 20.8145 198.058 20.868 197.721 20.9216C196.98 21.0286 196.333 21.2027 195.781 21.4436C195.228 21.6711 194.797 21.9857 194.487 22.3873C194.19 22.7755 194.042 23.264 194.042 23.853C194.042 24.6963 194.352 25.3388 194.972 25.7805C195.592 26.2222 196.387 26.4431 197.357 26.4431Z" fill="white"/>
<path d="M159.716 30.3178L153.57 7.87036H159.918L163.415 22.9692H163.617L167.276 7.87036H173.483L177.182 22.8688H177.384L180.821 7.87036H187.148L181.003 30.3178H174.392L170.511 16.2028H170.228L166.346 30.3178H159.716Z" fill="white"/>
<path d="M152.135 14.2757L146.414 14.617C146.265 13.9076 145.868 13.2985 145.221 12.7899C144.574 12.2678 143.705 12.0068 142.613 12.0068C141.643 12.0068 140.827 12.2076 140.167 12.6092C139.52 13.0107 139.197 13.5461 139.197 14.2154C139.197 14.7508 139.406 15.2126 139.823 15.6008C140.255 15.9756 140.989 16.2701 142.027 16.4843L146.131 17.2874C148.327 17.7291 149.965 18.4452 151.043 19.4358C152.121 20.4263 152.66 21.7314 152.66 23.351C152.66 24.8368 152.229 26.1352 151.367 27.2462C150.504 28.3438 149.318 29.2072 147.809 29.8363C146.299 30.452 144.567 30.7599 142.613 30.7599C139.621 30.7599 137.236 30.1375 135.457 28.8926C133.691 27.6478 132.66 25.9612 132.364 23.8329L138.489 23.5117C138.691 24.4219 139.15 25.1112 139.864 25.5797C140.578 26.0482 141.495 26.2824 142.613 26.2824C143.705 26.2824 144.588 26.0683 145.261 25.6399C145.949 25.2116 146.292 24.6695 146.292 24.0136C146.292 22.9026 145.322 22.153 143.381 21.7648L139.48 20.9617C137.283 20.52 135.645 19.7637 134.567 18.6929C133.489 17.622 132.95 16.25 132.95 14.5768C132.95 13.1312 133.348 11.8863 134.143 10.8423C134.938 9.79821 136.05 8.99508 137.478 8.43289C138.92 7.8707 140.605 7.5896 142.532 7.5896C145.389 7.5896 147.633 8.19195 149.264 9.39664C150.908 10.588 151.865 12.2143 152.135 14.2757Z" fill="white"/>
<path d="M119.486 30.7599C117.209 30.7599 115.234 30.278 113.563 29.3143C111.905 28.3371 110.625 26.9852 109.722 25.2585C108.832 23.5183 108.388 21.4971 108.388 19.1948C108.388 16.8658 108.832 14.8378 109.722 13.1111C110.625 11.371 111.905 10.0191 113.563 9.05531C115.234 8.07817 117.209 7.5896 119.486 7.5896C121.777 7.5896 123.752 8.07817 125.409 9.05531C127.081 10.0191 128.361 11.371 129.25 13.1111C130.153 14.8378 130.605 16.8658 130.605 19.1948C130.605 21.4971 130.153 23.5183 129.25 25.2585C128.361 26.9852 127.081 28.3371 125.409 29.3143C123.752 30.278 121.777 30.7599 119.486 30.7599ZM119.527 25.901C120.564 25.901 121.434 25.6132 122.134 25.0376C122.835 24.4486 123.361 23.6455 123.711 22.6282C124.075 21.6109 124.257 20.4531 124.257 19.1547C124.257 17.8429 124.075 16.685 123.711 15.6811C123.361 14.6772 122.835 13.8875 122.134 13.3119C121.434 12.7363 120.564 12.4485 119.527 12.4485C118.475 12.4485 117.593 12.7363 116.878 13.3119C116.178 13.8875 115.645 14.6772 115.281 15.6811C114.931 16.685 114.756 17.8429 114.756 19.1547C114.756 20.4531 114.931 21.6109 115.281 22.6282C115.645 23.6455 116.178 24.4486 116.878 25.0376C117.593 25.6132 118.475 25.901 119.527 25.901Z" fill="white"/>
<path d="M106.831 7.8706V12.5689H93.2261V7.8706H106.831ZM96.3191 2.52979H102.566V23.4112C102.566 24.1608 102.734 24.7163 103.071 25.0777C103.408 25.4257 103.947 25.5997 104.688 25.5997C104.931 25.5997 105.201 25.5796 105.497 25.5395C105.794 25.4993 106.05 25.4525 106.265 25.3989L107.256 30.0571C106.568 30.2578 105.901 30.4051 105.254 30.4988C104.621 30.5925 103.994 30.6393 103.374 30.6393C101.124 30.6393 99.3851 30.0838 98.1587 28.9728C96.9323 27.8485 96.3191 26.269 96.3191 24.2344V2.52979Z" fill="white"/>
<path d="M70.0991 38.7109V7.8707H76.2447V11.6655H76.5277C76.8108 11.0498 77.2151 10.4273 77.7407 9.79821C78.2663 9.16909 78.9536 8.64705 79.8027 8.2321C80.6518 7.80377 81.703 7.5896 82.9564 7.5896C84.614 7.5896 86.1302 8.01794 87.5049 8.87461C88.8931 9.71789 90.0049 10.9962 90.8405 12.7096C91.6761 14.4229 92.0939 16.5646 92.0939 19.1346C92.0939 21.6243 91.6896 23.7325 90.8809 25.4592C90.0723 27.1726 88.9739 28.471 87.5858 29.3544C86.2111 30.2379 84.6612 30.6796 82.9361 30.6796C81.7232 30.6796 80.6922 30.4788 79.8431 30.0772C78.9941 29.6757 78.3 29.1737 77.7609 28.5714C77.2353 27.9556 76.8242 27.3399 76.5277 26.7242H76.3458V38.7109H70.0991ZM80.955 25.7403C81.9793 25.7403 82.8418 25.4592 83.5426 24.8971C84.2434 24.3349 84.7758 23.5585 85.1397 22.568C85.5035 21.5641 85.6855 20.4129 85.6855 19.1145C85.6855 17.8161 85.5035 16.6784 85.1397 15.7012C84.7892 14.7107 84.2636 13.9343 83.5628 13.3721C82.862 12.8099 81.9927 12.5288 80.955 12.5288C79.9442 12.5288 79.0817 12.8033 78.3674 13.3521C77.6666 13.8875 77.1275 14.6505 76.7501 15.641C76.3862 16.6181 76.2043 17.776 76.2043 19.1145C76.2043 20.4397 76.393 21.5975 76.7703 22.5881C77.1477 23.5786 77.6868 24.3549 78.3876 24.9171C79.1019 25.4659 79.9577 25.7403 80.955 25.7403Z" fill="white"/>
<path d="M51.0154 38.7106C50.2203 38.7239 49.4723 38.6704 48.7715 38.5499C48.0842 38.4295 47.5181 38.2755 47.0734 38.0881L48.4885 33.4501L48.6906 33.4902C49.7419 33.7981 50.6381 33.865 51.3793 33.691C52.1341 33.5304 52.7068 32.9414 53.0977 31.9241L53.4616 30.9604L45.3752 7.87036H51.9454L56.6152 24.3546H56.8578L61.5883 7.87036H68.1989L59.4252 32.7473C59.0074 33.952 58.4346 35.0028 57.7069 35.8996C56.9926 36.7964 56.0896 37.4858 54.998 37.9677C53.9063 38.4629 52.5788 38.7106 51.0154 38.7106Z" fill="white"/>
<path d="M30.9209 30.318V7.87051H36.9654V11.8058H37.208C37.6258 10.4138 38.3199 9.36299 39.2902 8.65356C40.2606 7.93074 41.3725 7.56934 42.6258 7.56934C42.9493 7.56934 43.2862 7.58941 43.6366 7.62957C44.0005 7.65634 44.324 7.70988 44.607 7.7902V13.2916C44.3105 13.1979 43.8994 13.1243 43.3738 13.0708C42.8617 13.0038 42.3832 12.9704 41.9385 12.9704C41.0355 12.9704 40.2202 13.1712 39.4924 13.5727C38.7646 13.9609 38.1918 14.5097 37.774 15.2191C37.3697 15.9152 37.1676 16.7183 37.1676 17.6285V30.318H30.9209Z" fill="white"/>
<path d="M14.708 30.7197C12.0395 30.7197 9.64729 30.1174 7.53137 28.9127C5.41545 27.708 3.74428 25.9612 2.51786 23.6723C1.29143 21.3833 0.678223 18.6192 0.678223 15.3799C0.678223 12.1139 1.29143 9.33639 2.51786 7.04747C3.75776 4.74516 5.43567 2.99835 7.55159 1.80704C9.68098 0.602348 12.0664 0 14.708 0C16.46 0 18.084 0.247632 19.58 0.742895C21.0759 1.22477 22.3967 1.9342 23.5423 2.87119C24.7013 3.79479 25.6447 4.93256 26.3725 6.28449C27.1002 7.62304 27.5652 9.15568 27.7674 10.8824H21.3387C21.2174 10.0659 20.9749 9.32969 20.611 8.67381C20.2606 8.01792 19.7956 7.46242 19.2161 7.00731C18.65 6.5522 17.9964 6.20418 17.2552 5.96324C16.5274 5.70892 15.7255 5.58175 14.8495 5.58175C13.3131 5.58175 11.9586 5.96993 10.7861 6.74629C9.62707 7.50927 8.7241 8.62026 8.0772 10.0793C7.44377 11.5249 7.12705 13.2918 7.12705 15.3799C7.12705 17.5082 7.45051 19.3019 8.09741 20.7609C8.74432 22.2065 9.64729 23.2975 10.8063 24.0337C11.9654 24.7699 13.3063 25.138 14.8293 25.138C15.6783 25.138 16.4667 25.0242 17.1945 24.7966C17.9223 24.5691 18.5692 24.2411 19.1352 23.8128C19.7013 23.3845 20.173 22.8624 20.5503 22.2467C20.9412 21.6176 21.204 20.9015 21.3387 20.0983H27.7674C27.6056 21.477 27.1946 22.8022 26.5342 24.0738C25.8873 25.3454 25.0045 26.4832 23.8859 27.4871C22.7673 28.4777 21.4398 29.2674 19.9034 29.8564C18.367 30.4319 16.6352 30.7197 14.708 30.7197Z" fill="white"/>
</svg>
