<svg width="274" height="33" viewBox="0 0 274 33" fill="none" xmlns="http://www.w3.org/2000/svg">
<path d="M265.195 26.0391C263.254 26.0391 261.579 25.6441 260.168 24.8542C258.757 24.0643 257.674 22.9414 256.918 21.4857C256.173 20.0187 255.801 18.2865 255.801 16.2891C255.801 14.3481 256.173 12.6441 256.918 11.1771C257.674 9.71009 258.735 8.56469 260.1 7.7409C261.477 6.91712 263.091 6.50523 264.941 6.50523C266.194 6.50523 267.362 6.70835 268.445 7.1146C269.529 7.50957 270.477 8.10766 271.289 8.90887C272.102 9.6988 272.734 10.6975 273.185 11.905C273.636 13.1011 273.862 14.5061 273.862 16.1198V17.5417H257.883V14.3086H271.323L268.885 15.155C268.885 14.1958 268.739 13.3607 268.445 12.6498C268.152 11.9388 267.712 11.3915 267.125 11.0078C266.549 10.6129 265.833 10.4154 264.975 10.4154C264.118 10.4154 263.39 10.6129 262.792 11.0078C262.205 11.4028 261.753 11.9388 261.437 12.6159C261.122 13.293 260.964 14.0716 260.964 14.9518V17.237C260.964 18.2639 261.144 19.1441 261.505 19.8776C261.866 20.5998 262.368 21.1584 263.012 21.5534C263.666 21.9371 264.417 22.1289 265.263 22.1289C265.85 22.1289 266.38 22.0443 266.854 21.875C267.328 21.7057 267.734 21.4575 268.073 21.1302C268.423 20.803 268.682 20.408 268.852 19.9453L273.693 20.2669C273.456 21.4293 272.959 22.4449 272.203 23.3138C271.458 24.1715 270.493 24.8429 269.309 25.3281C268.124 25.8021 266.753 26.0391 265.195 26.0391Z" fill="#1F6BDD"/>
<path d="M241.294 14.7318V25.6667H236.064V6.74221H241.21V10.1107H241.396C241.825 8.99351 242.508 8.1133 243.444 7.47007C244.381 6.82684 245.554 6.50523 246.965 6.50523C248.274 6.50523 249.414 6.79299 250.384 7.36851C251.366 7.94403 252.128 8.76217 252.669 9.82293C253.211 10.8837 253.482 12.1532 253.482 13.6315V25.6667H248.251V14.5625C248.251 13.4115 247.952 12.5087 247.354 11.8542C246.756 11.1884 245.932 10.8555 244.883 10.8555C244.183 10.8555 243.563 11.0135 243.021 11.3294C242.479 11.6341 242.056 12.0742 241.751 12.6498C241.447 13.2253 241.294 13.9193 241.294 14.7318Z" fill="#1F6BDD"/>
<path d="M224.435 26.0391C222.528 26.0391 220.875 25.6328 219.475 24.8203C218.087 23.9965 217.015 22.8568 216.259 21.4011C215.514 19.934 215.142 18.2301 215.142 16.2891C215.142 14.3255 215.514 12.6159 216.259 11.1602C217.015 9.69316 218.087 8.5534 219.475 7.7409C220.875 6.91712 222.528 6.50523 224.435 6.50523C226.353 6.50523 228.007 6.91712 229.395 7.7409C230.794 8.5534 231.866 9.69316 232.611 11.1602C233.367 12.6159 233.745 14.3255 233.745 16.2891C233.745 18.2301 233.367 19.934 232.611 21.4011C231.866 22.8568 230.794 23.9965 229.395 24.8203C228.007 25.6328 226.353 26.0391 224.435 26.0391ZM224.469 21.9427C225.338 21.9427 226.066 21.7001 226.653 21.2149C227.239 20.7183 227.679 20.0412 227.973 19.1836C228.278 18.326 228.43 17.3498 228.43 16.2552C228.43 15.1493 228.278 14.1732 227.973 13.3268C227.679 12.4805 227.239 11.8147 226.653 11.3294C226.066 10.8442 225.338 10.6016 224.469 10.6016C223.589 10.6016 222.85 10.8442 222.251 11.3294C221.665 11.8147 221.219 12.4805 220.914 13.3268C220.621 14.1732 220.474 15.1493 220.474 16.2552C220.474 17.3498 220.621 18.326 220.914 19.1836C221.219 20.0412 221.665 20.7183 222.251 21.2149C222.85 21.7001 223.589 21.9427 224.469 21.9427Z" fill="#1F6BDD"/>
<path d="M197.673 25.6667V22.5352L206.932 11.0755V10.9401H197.978V6.7422H213.229V10.1784L204.546 21.3333V21.4688H213.551V25.6667H197.673Z" fill="#1F6BDD"/>
<path d="M177.056 32.7422V6.74221H182.202V9.94142H182.439C182.676 9.42233 183.014 8.89759 183.455 8.36721C183.895 7.83682 184.47 7.39672 185.181 7.04689C185.892 6.68578 186.772 6.50523 187.822 6.50523C189.21 6.50523 190.479 6.86634 191.63 7.58856C192.793 8.2995 193.724 9.37719 194.423 10.8216C195.123 12.2661 195.473 14.0716 195.473 16.2383C195.473 18.3373 195.134 20.1146 194.457 21.5703C193.78 23.0148 192.86 24.1094 191.698 24.8542C190.547 25.599 189.249 25.9714 187.805 25.9714C186.789 25.9714 185.926 25.8021 185.215 25.4636C184.504 25.125 183.923 24.7018 183.472 24.194C183.031 23.6749 182.687 23.1558 182.439 22.6367H182.287V32.7422H177.056ZM186.146 21.8073C187.004 21.8073 187.726 21.5703 188.313 21.0964C188.899 20.6224 189.345 19.9679 189.65 19.1328C189.955 18.2865 190.107 17.316 190.107 16.2214C190.107 15.1268 189.955 14.1676 189.65 13.3438C189.356 12.5087 188.916 11.8542 188.33 11.3802C187.743 10.9063 187.015 10.6693 186.146 10.6693C185.3 10.6693 184.577 10.9006 183.979 11.3633C183.393 11.8147 182.941 12.4579 182.625 13.293C182.32 14.1168 182.168 15.0929 182.168 16.2214C182.168 17.3386 182.326 18.3147 182.642 19.1498C182.958 19.9848 183.409 20.6393 183.996 21.1133C184.594 21.576 185.311 21.8073 186.146 21.8073Z" fill="#841FDD"/>
<path d="M163.345 26.0222C162.149 26.0222 161.071 25.8134 160.112 25.3959C159.164 24.967 158.419 24.3351 157.878 23.5C157.336 22.6649 157.065 21.6268 157.065 20.3854C157.065 19.3247 157.257 18.4445 157.641 17.7448C158.024 17.0339 158.549 16.4584 159.215 16.0182C159.881 15.5781 160.637 15.2452 161.483 15.0195C162.33 14.7939 163.227 14.6359 164.175 14.5456C165.269 14.444 166.149 14.3425 166.815 14.2409C167.481 14.1393 167.966 13.987 168.271 13.7839C168.587 13.5695 168.745 13.2648 168.745 12.8698V12.7852C168.745 12.0065 168.497 11.4028 168 10.974C167.515 10.5452 166.826 10.3307 165.935 10.3307C164.998 10.3307 164.248 10.5395 163.684 10.957C163.131 11.3633 162.764 11.8824 162.583 12.5143L157.725 12.125C157.974 10.974 158.459 9.98092 159.181 9.14585C159.903 8.2995 160.834 7.65063 161.974 7.19924C163.125 6.73656 164.457 6.50523 165.969 6.50523C167.018 6.50523 168.023 6.62936 168.982 6.87762C169.941 7.12589 170.793 7.50957 171.538 8.02866C172.294 8.53648 172.892 9.19663 173.332 10.0091C173.772 10.8216 173.992 11.7865 173.992 12.9037V25.6667H168.999V23.0261H168.863C168.559 23.6242 168.152 24.1489 167.645 24.6003C167.137 25.0404 166.527 25.3902 165.816 25.6498C165.106 25.898 164.282 26.0222 163.345 26.0222ZM164.852 22.3998C165.619 22.3998 166.296 22.2474 166.883 21.9427C167.481 21.6268 167.944 21.2092 168.271 20.6901C168.609 20.1597 168.779 19.5673 168.779 18.9128V16.8985C168.621 17 168.395 17.0959 168.102 17.1862C167.82 17.2765 167.504 17.3555 167.154 17.4232C166.804 17.4909 166.454 17.553 166.104 17.6094C165.754 17.6545 165.438 17.6997 165.156 17.7448C164.536 17.8351 163.994 17.9818 163.531 18.1849C163.069 18.3768 162.708 18.6419 162.448 18.9805C162.2 19.3077 162.076 19.7196 162.076 20.2162C162.076 20.9271 162.335 21.4688 162.854 21.8412C163.373 22.2136 164.039 22.3998 164.852 22.3998Z" fill="#841FDD"/>
<path d="M133.333 25.6667L128.188 6.7422H133.503L136.431 19.4714H136.6L139.664 6.7422H144.861L147.958 19.3867H148.128L151.005 6.7422H156.303L151.158 25.6667H145.622L142.372 13.7669H142.135L138.885 25.6667H133.333Z" fill="#841FDD"/>
<path d="M126.986 12.1419L122.195 12.4297C122.071 11.8316 121.738 11.3182 121.197 10.8893C120.655 10.4492 119.927 10.2292 119.013 10.2292C118.201 10.2292 117.518 10.3985 116.965 10.737C116.423 11.0755 116.153 11.5269 116.153 12.0912C116.153 12.5426 116.327 12.9319 116.677 13.2591C117.038 13.5751 117.653 13.8234 118.522 14.0039L121.958 14.681C123.798 15.0534 125.169 15.6571 126.072 16.4922C126.975 17.3273 127.426 18.4275 127.426 19.793C127.426 21.0456 127.065 22.1402 126.343 23.0768C125.62 24.0022 124.627 24.7301 123.363 25.2604C122.1 25.7795 120.649 26.0391 119.013 26.0391C116.508 26.0391 114.511 25.5143 113.021 24.4649C111.543 23.4154 110.679 21.9935 110.431 20.1992L115.56 19.9284C115.729 20.6958 116.113 21.2769 116.711 21.6719C117.309 22.0669 118.077 22.2643 119.013 22.2643C119.927 22.2643 120.666 22.0838 121.231 21.7227C121.806 21.3616 122.094 20.9045 122.094 20.3516C122.094 19.4149 121.281 18.783 119.656 18.4557L116.389 17.7787C114.55 17.4063 113.179 16.7687 112.276 15.8659C111.373 14.9631 110.922 13.8064 110.922 12.3959C110.922 11.1771 111.255 10.1276 111.921 9.24741C112.587 8.36721 113.518 7.69012 114.714 7.21616C115.921 6.74221 117.332 6.50523 118.945 6.50523C121.338 6.50523 123.217 7.01304 124.582 8.02866C125.959 9.033 126.76 10.4041 126.986 12.1419Z" fill="#841FDD"/>
<path d="M99.6484 26.0391C97.7413 26.0391 96.0881 25.6328 94.6888 24.8203C93.3008 23.9965 92.2287 22.8568 91.4727 21.4011C90.7279 19.934 90.3555 18.2301 90.3555 16.2891C90.3555 14.3255 90.7279 12.6159 91.4727 11.1602C92.2287 9.69316 93.3008 8.5534 94.6888 7.7409C96.0881 6.91712 97.7413 6.50523 99.6484 6.50523C101.567 6.50523 103.22 6.91712 104.608 7.7409C106.007 8.5534 107.079 9.69316 107.824 11.1602C108.58 12.6159 108.958 14.3255 108.958 16.2891C108.958 18.2301 108.58 19.934 107.824 21.4011C107.079 22.8568 106.007 23.9965 104.608 24.8203C103.22 25.6328 101.567 26.0391 99.6484 26.0391ZM99.6823 21.9427C100.551 21.9427 101.279 21.7001 101.866 21.2149C102.453 20.7183 102.893 20.0412 103.186 19.1836C103.491 18.326 103.643 17.3498 103.643 16.2552C103.643 15.1493 103.491 14.1732 103.186 13.3268C102.893 12.4805 102.453 11.8147 101.866 11.3294C101.279 10.8442 100.551 10.6016 99.6823 10.6016C98.8021 10.6016 98.0629 10.8442 97.4648 11.3294C96.878 11.8147 96.4323 12.4805 96.1276 13.3268C95.8342 14.1732 95.6875 15.1493 95.6875 16.2552C95.6875 17.3498 95.8342 18.326 96.1276 19.1836C96.4323 20.0412 96.878 20.7183 97.4648 21.2149C98.0629 21.7001 98.8021 21.9427 99.6823 21.9427Z" fill="#1F6BDD"/>
<path d="M89.0521 6.74221V10.7031H77.6602V6.74221H89.0521ZM80.25 2.2396H85.4805V19.8438C85.4805 20.4757 85.6215 20.944 85.9036 21.2487C86.1858 21.5421 86.6372 21.6888 87.2578 21.6888C87.4609 21.6888 87.6866 21.6719 87.9349 21.638C88.1832 21.6042 88.3976 21.5647 88.5781 21.5195L89.4076 25.4466C88.832 25.6159 88.2734 25.74 87.7318 25.819C87.2014 25.898 86.6766 25.9375 86.1576 25.9375C84.273 25.9375 82.8173 25.4692 81.7904 24.5326C80.7635 23.5847 80.25 22.2531 80.25 20.5378V2.2396Z" fill="#1F6BDD"/>
<path d="M58.2957 32.7422V6.74221H63.4415V9.94142H63.6785C63.9154 9.42233 64.254 8.89759 64.6941 8.36721C65.1342 7.83682 65.7097 7.39672 66.4207 7.04689C67.1316 6.68578 68.0118 6.50523 69.0613 6.50523C70.4493 6.50523 71.7188 6.86634 72.8699 7.58856C74.0322 8.2995 74.9632 9.37719 75.6628 10.8216C76.3625 12.2661 76.7123 14.0716 76.7123 16.2383C76.7123 18.3373 76.3738 20.1146 75.6967 21.5703C75.0196 23.0148 74.0999 24.1094 72.9376 24.8542C71.7865 25.599 70.4888 25.9714 69.0444 25.9714C68.0287 25.9714 67.1654 25.8021 66.4545 25.4636C65.7436 25.125 65.1624 24.7018 64.711 24.194C64.2709 23.6749 63.9267 23.1558 63.6785 22.6367H63.5261V32.7422H58.2957ZM67.3855 21.8073C68.2431 21.8073 68.9654 21.5703 69.5522 21.0964C70.139 20.6224 70.5847 19.9679 70.8894 19.1328C71.1941 18.2865 71.3464 17.316 71.3464 16.2214C71.3464 15.1268 71.1941 14.1676 70.8894 13.3438C70.596 12.5087 70.1559 11.8542 69.5691 11.3802C68.9823 10.9063 68.2544 10.6693 67.3855 10.6693C66.5391 10.6693 65.8169 10.9006 65.2188 11.3633C64.632 11.8147 64.1806 12.4579 63.8647 13.293C63.56 14.1168 63.4076 15.0929 63.4076 16.2214C63.4076 17.3386 63.5656 18.3147 63.8816 19.1498C64.1976 19.9848 64.649 20.6393 65.2358 21.1133C65.8338 21.576 66.5504 21.8073 67.3855 21.8073Z" fill="#1F6BDD"/>
<path d="M42.3164 32.7422C41.6506 32.7535 41.0243 32.7084 40.4375 32.6068C39.862 32.5052 39.388 32.3755 39.0156 32.2175L40.2005 28.3073L40.3698 28.3412C41.25 28.6007 42.0004 28.6571 42.6211 28.5104C43.253 28.375 43.7326 27.8785 44.0599 27.0209L44.3646 26.2084L37.5938 6.7422H43.0951L47.0052 20.6393H47.2083L51.1693 6.7422H56.7044L49.3581 27.7149C49.0082 28.7305 48.5286 29.6163 47.9193 30.3724C47.3212 31.1285 46.5651 31.7097 45.651 32.1159C44.737 32.5334 43.6254 32.7422 42.3164 32.7422Z" fill="#1F6BDD"/>
<path d="M25.491 25.6667V6.7422H30.5522V10.0599H30.7553C31.1051 8.8863 31.6863 8.00045 32.4988 7.40236C33.3113 6.79299 34.2423 6.4883 35.2917 6.4883C35.5626 6.4883 35.8447 6.50523 36.1381 6.53908C36.4428 6.56165 36.7136 6.60679 36.9506 6.6745V11.3125C36.7023 11.2335 36.3582 11.1715 35.9181 11.1263C35.4892 11.0699 35.0886 11.0417 34.7162 11.0417C33.9602 11.0417 33.2774 11.211 32.6681 11.5495C32.0587 11.8768 31.5791 12.3394 31.2292 12.9375C30.8907 13.5243 30.7214 14.2014 30.7214 14.9688V25.6667H25.491Z" fill="#1F6BDD"/>
<path d="M11.9154 26.0052C9.68099 26.0052 7.67795 25.4974 5.90625 24.4818C4.13455 23.4662 2.73524 21.9935 1.70833 20.0638C0.681424 18.1341 0.167969 15.8038 0.167969 13.0729C0.167969 10.3195 0.681424 7.97788 1.70833 6.0482C2.74653 4.10722 4.15148 2.63457 5.92318 1.63023C7.70616 0.614601 9.70356 0.106789 11.9154 0.106789C13.3824 0.106789 14.7422 0.315556 15.9948 0.733091C17.2474 1.13934 18.3533 1.73743 19.3125 2.52736C20.283 3.30601 21.0729 4.26521 21.6823 5.40497C22.2917 6.53344 22.681 7.82554 22.8503 9.28127H17.4674C17.3659 8.5929 17.1628 7.97224 16.8581 7.41929C16.5647 6.86634 16.1753 6.39802 15.6901 6.01434C15.2161 5.63066 14.6688 5.33726 14.0482 5.13413C13.4388 4.91972 12.7674 4.81252 12.0339 4.81252C10.7474 4.81252 9.61328 5.13977 8.63151 5.79429C7.66102 6.43752 6.90495 7.37415 6.36328 8.60418C5.8329 9.82293 5.56771 11.3125 5.56771 13.0729C5.56771 14.8672 5.83854 16.3794 6.38021 17.6094C6.92187 18.8281 7.67795 19.7478 8.64844 20.3685C9.61892 20.9892 10.7418 21.2995 12.0169 21.2995C12.7279 21.2995 13.388 21.2036 13.9974 21.0117C14.6068 20.8199 15.1484 20.5434 15.6224 20.1823C16.0964 19.8212 16.4913 19.3811 16.8073 18.862C17.1345 18.3316 17.3546 17.7279 17.4674 17.0508H22.8503C22.7148 18.2131 22.3707 19.3303 21.8177 20.4024C21.276 21.4744 20.5369 22.4336 19.6003 23.28C18.6636 24.115 17.5521 24.7808 16.2656 25.2774C14.9792 25.7626 13.5291 26.0052 11.9154 26.0052Z" fill="#1F6BDD"/>
</svg>
