<svg width="66" height="62" viewBox="0 0 66 62" fill="none" xmlns="http://www.w3.org/2000/svg">
<path d="M44.2969 15.375L25.7812 30.625V22.2812C25.7812 21.875 25.4531 21.5312 25.0312 21.5312L22.9375 21.4844C19.9531 21.3594 17.0312 21.6719 14.2656 22.4375C8.70312 24.0781 4.5 27.1562 0.9375 32.2969V29.9375C0.953125 29.8594 0.96875 29.7656 0.984375 29.6562C0.984375 27.3125 1.42188 24.8438 2.21875 22.5625C5.07812 14.5938 12.8281 9.28125 21.5312 9.28125H25C25.4219 9.28125 25.75 8.9375 25.75 8.53125V0.125L44.2969 15.375ZM65.0625 29.75V32.125C65.0312 32.2031 65.0156 32.2969 65.0156 32.3906C65.0156 34.7344 64.5781 37.2031 63.7812 39.4844C60.9219 47.4531 53.1719 52.7656 44.4687 52.7656H41C40.5781 52.7656 40.2344 53.1094 40.2344 53.5313V61.875L21.7187 46.6406L40.2187 31.4063V39.75C40.2187 40.1562 40.5469 40.5 40.9687 40.5156L43.0625 40.5625C46.0469 40.6875 48.9687 40.375 51.7344 39.6094C57.2969 37.9531 61.4844 34.8906 65.0625 29.75Z" fill="url(#paint0_linear_27_1511)"/>
<defs>
<linearGradient id="paint0_linear_27_1511" x1="0.937505" y1="30.9992" x2="65.0625" y2="30.9992" gradientUnits="userSpaceOnUse">
<stop stop-color="#00C0FF"/>
<stop offset="1" stop-color="#5558FF"/>
</linearGradient>
</defs>
</svg>
