<svg width="70" height="62" viewBox="0 0 70 62" fill="none" xmlns="http://www.w3.org/2000/svg">
<path d="M44.3875 36.6875C44.5787 43.9837 35.8275 48.6375 29.925 44.6C22.095 39.685 25.6163 27.275 34.9875 27.2875C37.4795 27.2908 39.8685 28.2822 41.6307 30.0443C43.3928 31.8065 44.3842 34.1955 44.3875 36.6875ZM65.3625 45.9875L63.4875 45.3625C62.0123 46.8649 60.1146 47.8825 58.047 48.28C55.9793 48.6774 53.8396 48.4359 51.9125 47.5875C53.5206 49.4873 54.3982 51.8985 54.3875 54.3875V57.9375C54.3896 58.0003 54.3854 58.0631 54.375 58.125H67.175C67.9232 58.1217 68.6399 57.823 69.1689 57.2939C69.698 56.7649 69.9967 56.0482 70 55.3V52.4375C70.0003 51.0121 69.5527 49.6226 68.7206 48.4652C67.8885 47.3079 66.7138 46.4412 65.3625 45.9875ZM45.725 46.5L42.9 45.5625C40.7156 47.4967 37.8989 48.5645 34.9813 48.5645C32.0636 48.5645 29.2469 47.4967 27.0625 45.5625C25.305 46.235 22.665 46.7537 21.225 47.9875C20.2441 48.741 19.4497 49.7102 18.9035 50.8201C18.3572 51.9299 18.0737 53.1505 18.075 54.3875V57.9375C18.0783 58.7873 18.4182 59.6012 19.0203 60.201C19.6224 60.8008 20.4377 61.1375 21.2875 61.1375H48.675C49.4924 61.1398 50.2797 60.8288 50.8749 60.2685C51.4701 59.7082 51.828 58.9411 51.875 58.125C51.8854 58.0631 51.8896 58.0003 51.8875 57.9375V54.3875C51.8748 52.577 51.2635 50.8215 50.1488 49.3948C49.0341 47.9681 47.4787 46.9502 45.725 46.5ZM63.9375 38.1375C63.575 27.7662 48.6338 27.765 48.2625 38.1375C48.6375 48.4975 63.5638 48.5162 63.9375 38.1375ZM18.0375 47.5875C16.382 48.3227 14.5613 48.606 12.7607 48.4084C10.9601 48.2107 9.24408 47.5393 7.7875 46.4625C7.3386 46.1339 6.91644 45.7703 6.52501 45.375L4.6375 46C3.28595 46.4494 2.11039 47.3132 1.27787 48.4689C0.445346 49.6246 -0.00178647 51.0132 5.36447e-06 52.4375V55.3C0.00329431 56.0482 0.301983 56.7649 0.831062 57.2939C1.36014 57.823 2.07678 58.1217 2.82501 58.125H15.5875C15.5772 58.0631 15.573 58.0003 15.575 57.9375V54.3875C15.564 51.9006 16.4368 49.4907 18.0375 47.5875ZM6.06251 38.1375C6.39251 48.4875 21.3925 48.4937 21.725 38.1375C21.36 27.7587 6.42501 27.7712 6.06251 38.1375ZM4.80001 19.275L7.1375 20.975L6.25 23.725C6.08486 24.2354 6.08549 24.785 6.25181 25.2951C6.41813 25.8051 6.74161 26.2495 7.1759 26.5645C7.6102 26.8794 8.13303 27.0489 8.66952 27.0485C9.20601 27.0482 9.72862 26.878 10.1625 26.5625L12.5 24.8625L14.8375 26.5625C15.2714 26.878 15.794 27.0482 16.3305 27.0485C16.867 27.0489 17.3898 26.8794 17.8241 26.5645C18.2584 26.2495 18.5819 25.8051 18.7482 25.2951C18.9145 24.785 18.9151 24.2354 18.75 23.725L17.8625 20.975L20.2 19.275C20.6349 18.9603 20.959 18.5158 21.1258 18.0055C21.2925 17.4952 21.2934 16.9452 21.1282 16.4343C20.963 15.9235 20.6403 15.4781 20.2063 15.1621C19.7723 14.846 19.2494 14.6755 18.7125 14.675H15.8125L14.9125 11.925C14.7492 11.4134 14.4274 10.967 13.9938 10.6503C13.5601 10.3335 13.037 10.1628 12.5 10.1628C11.963 10.1628 11.4399 10.3335 11.0062 10.6503C10.5726 10.967 10.2509 11.4134 10.0875 11.925L9.1875 14.675H6.2875C5.75063 14.6755 5.2277 14.846 4.79372 15.1621C4.35975 15.4781 4.03702 15.9235 3.87183 16.4343C3.70664 16.9452 3.70748 17.4952 3.87423 18.0055C4.04098 18.5158 4.36506 18.9603 4.80001 19.275ZM25.5625 11.6875L28.675 13.9375L27.4875 17.6C27.3004 18.1744 27.2999 18.7933 27.4862 19.368C27.6726 19.9427 28.0361 20.4436 28.5247 20.7989C29.0132 21.1542 29.6018 21.3457 30.2059 21.3459C30.81 21.3461 31.3987 21.155 31.8875 20.8L35 18.5375L38.1125 20.8C38.6013 21.155 39.19 21.3461 39.7941 21.3459C40.3982 21.3457 40.9868 21.1542 41.4753 20.7989C41.9639 20.4436 42.3274 19.9427 42.5138 19.368C42.7001 18.7933 42.6996 18.1744 42.5125 17.6L41.325 13.9375L44.4375 11.6875C44.9283 11.333 45.2942 10.832 45.4827 10.2566C45.6711 9.68119 45.6724 9.06086 45.4863 8.48466C45.3003 7.90847 44.9365 7.40603 44.4471 7.04946C43.9577 6.6929 43.368 6.50054 42.7625 6.5H38.9125L37.725 2.85C37.5395 2.27316 37.1756 1.77008 36.686 1.41319C36.1963 1.0563 35.6059 0.864014 35 0.864014C34.3941 0.864014 33.8037 1.0563 33.314 1.41319C32.8244 1.77008 32.4605 2.27316 32.275 2.85L31.0875 6.5H27.2375C26.632 6.50054 26.0423 6.6929 25.5529 7.04946C25.0635 7.40603 24.6997 7.90847 24.5137 8.48466C24.3276 9.06086 24.3289 9.68119 24.5173 10.2566C24.7058 10.832 25.0717 11.333 25.5625 11.6875ZM49.8 19.275L52.1375 20.975L51.25 23.725C51.0849 24.2354 51.0855 24.785 51.2518 25.2951C51.4181 25.8051 51.7416 26.2495 52.1759 26.5645C52.6102 26.8794 53.133 27.0489 53.6695 27.0485C54.206 27.0482 54.7286 26.878 55.1625 26.5625L57.5 24.8625L59.8375 26.5625C60.2714 26.878 60.794 27.0482 61.3305 27.0485C61.867 27.0489 62.3898 26.8794 62.8241 26.5645C63.2584 26.2495 63.5819 25.8051 63.7482 25.2951C63.9145 24.785 63.9151 24.2354 63.75 23.725L62.8625 20.975L65.2 19.275C65.6272 18.9561 65.9439 18.5116 66.1058 18.0037C66.2676 17.4957 66.2664 16.9499 66.1024 16.4427C65.9384 15.9355 65.6197 15.4923 65.1911 15.1753C64.7626 14.8583 64.2455 14.6833 63.7125 14.675H60.8125L59.9125 11.925C59.7492 11.4134 59.4274 10.967 58.9938 10.6503C58.5601 10.3335 58.037 10.1628 57.5 10.1628C56.963 10.1628 56.4399 10.3335 56.0062 10.6503C55.5726 10.967 55.2508 11.4134 55.0875 11.925L54.1875 14.675H51.2875C50.7506 14.6755 50.2277 14.846 49.7937 15.1621C49.3597 15.4781 49.037 15.9235 48.8718 16.4343C48.7066 16.9452 48.7075 17.4952 48.8742 18.0055C49.041 18.5158 49.3651 18.9603 49.8 19.275Z" fill="url(#paint0_linear_17_303)"/>
<defs>
<linearGradient id="paint0_linear_17_303" x1="5.36447e-06" y1="31" x2="70" y2="31" gradientUnits="userSpaceOnUse">
<stop stop-color="#00C0FF"/>
<stop offset="1" stop-color="#5558FF"/>
</linearGradient>
</defs>
</svg>
