<svg width="72" height="64" viewBox="0 0 72 64" fill="none" xmlns="http://www.w3.org/2000/svg">
<path fill-rule="evenodd" clip-rule="evenodd" d="M15.2891 21.1202C15.2891 23.3858 15.6547 25.5671 16.3266 27.6077H24.1359C23.7984 25.5202 23.625 23.3389 23.625 21.1202C23.625 18.8921 23.7984 16.7108 24.1344 14.6327H16.3266C15.6547 16.6749 15.2891 18.8546 15.2891 21.1202ZM12.8156 45.628C16.4297 45.628 19.3703 42.6874 19.3703 39.0733C19.3703 35.4593 16.4297 32.5186 12.8156 32.5186C9.20156 32.5186 6.26094 35.4593 6.26094 39.0733C6.26094 42.6874 9.20156 45.628 12.8156 45.628ZM17.9906 53.8858C17.9884 51.808 18.5454 49.768 19.6031 47.9796C19.0359 47.8421 18.4531 47.7718 17.8609 47.7718H7.76875C3.64844 47.7718 0.296875 51.1233 0.296875 55.2452V61.278C0.296875 62.0718 0.942187 62.7171 1.73594 62.7171H6.09063V56.2811C6.09063 55.7639 6.51094 55.3436 7.02813 55.3436C7.54531 55.3436 7.96563 55.7639 7.96563 56.2811V62.7155H18.1578C18.047 62.3454 17.9907 61.9612 17.9906 61.5749V53.8858ZM52.2906 53.8858C52.2906 51.7249 51.5859 49.728 50.3953 48.1077C50.3547 48.0624 50.3172 48.0139 50.2844 47.9593C48.4953 45.6186 45.6766 44.103 42.5094 44.103H29.6469C26.4797 44.103 23.6609 45.6171 21.8719 47.9593C21.8391 48.0124 21.8016 48.0624 21.7609 48.1077C20.5703 49.728 19.8656 51.7249 19.8656 53.8858V61.5749C19.8656 62.728 20.8031 63.6671 21.9562 63.6671H27.7641V55.2483C27.7641 54.7311 28.1844 54.3108 28.7016 54.3108C29.2203 54.3108 29.6391 54.7311 29.6391 55.2483V63.6671H42.5172V55.2483C42.5172 54.7311 42.9359 54.3108 43.4547 54.3108C43.9719 54.3108 44.3922 54.7311 44.3922 55.2483V63.6671H50.2C51.3531 63.6671 52.2906 62.7296 52.2906 61.5749V53.8858ZM64.3875 47.7718H54.2953C53.7031 47.7718 53.1203 47.8421 52.5531 47.9796C53.6108 49.768 54.1678 51.808 54.1656 53.8858V61.5749C54.1656 61.9718 54.1078 62.3546 53.9984 62.7155H64.1906V56.2811C64.1906 55.7639 64.6109 55.3436 65.1281 55.3436C65.6453 55.3436 66.0656 55.7639 66.0656 56.2811V62.7155H70.4203C71.2141 62.7155 71.8594 62.0702 71.8594 61.2764V55.2436C71.8578 51.1233 68.5078 47.7718 64.3875 47.7718ZM59.3391 32.5186C55.725 32.5186 52.7844 35.4593 52.7844 39.0733C52.7844 42.6889 55.725 45.628 59.3391 45.628C62.9547 45.628 65.8938 42.6874 65.8938 39.0733C65.8953 35.4593 62.9562 32.5186 59.3391 32.5186ZM24.4859 12.7561C25.0766 10.0093 25.9578 7.48269 27.1063 5.31707C27.9797 3.66863 28.9703 2.29675 30.0469 1.22175C24.2234 2.9905 19.475 7.24988 17.0453 12.7561H24.4859ZM35.1391 12.7561H26.4047C26.9562 10.3343 27.7484 8.10925 28.7625 6.19519C30.5344 2.85144 32.7703 0.835815 35.1391 0.41394V12.7561ZM45.75 12.7561C45.1984 10.3343 44.4062 8.10925 43.3922 6.19519C41.6203 2.85144 39.3844 0.835815 37.0156 0.41394V12.7561H45.75ZM47.6687 12.7561C47.0797 10.0093 46.1969 7.48269 45.0484 5.31707C44.175 3.66863 43.1844 2.29675 42.1078 1.22175C47.9312 2.9905 52.6797 7.24988 55.1094 12.7561H47.6687ZM48.0203 27.6077H55.8297C56.5016 25.5655 56.8672 23.3843 56.8672 21.1202C56.8672 18.8561 56.5016 16.6749 55.8297 14.6327H48.0219C48.3578 16.7108 48.5312 18.8921 48.5312 21.1202C48.5297 23.3389 48.3578 25.5202 48.0203 27.6077ZM55.1078 29.4827C52.9047 34.4749 48.7969 38.4436 43.7078 40.4577C45.4437 38.6155 46.5203 36.1468 46.5594 33.4311C47 32.178 47.3703 30.8561 47.6656 29.4827H55.1078ZM37.0156 14.6327V22.8343C40.3203 23.128 43.1859 24.9608 44.8953 27.6093H46.1188C46.4719 25.5311 46.6562 23.3483 46.6562 21.1218C46.6562 18.8827 46.4719 16.7014 46.1203 14.6343H37.0156V14.6327ZM27.2609 27.6077C28.9703 24.9593 31.8359 23.1264 35.1406 22.8327V14.6311H26.0359C25.6859 16.6983 25.5 18.8796 25.5 21.1186C25.5 23.3468 25.6844 25.5296 26.0375 27.6061H27.2609V27.6077ZM36.0766 24.6639C31.3281 24.6639 27.4641 28.528 27.4641 33.2764C27.4641 38.0249 31.3281 41.8889 36.0766 41.8889C40.825 41.8889 44.6891 38.0249 44.6891 33.2764C44.6906 28.528 40.825 24.6639 36.0766 24.6639ZM24.4891 29.4827C24.7844 30.8561 25.1547 32.178 25.5953 33.4311C25.6344 36.1468 26.7125 38.6155 28.4469 40.4577C23.3578 38.4436 19.25 34.4749 17.0469 29.4827H24.4891Z" fill="url(#paint0_linear_27_1519)"/>
<defs>
<linearGradient id="paint0_linear_27_1519" x1="0.29688" y1="32.0397" x2="71.8594" y2="32.0397" gradientUnits="userSpaceOnUse">
<stop stop-color="#00C0FF"/>
<stop offset="1" stop-color="#5558FF"/>
</linearGradient>
</defs>
</svg>
