<svg width="28" height="22" viewBox="0 0 28 22" fill="none" xmlns="http://www.w3.org/2000/svg">
<path d="M3.33317 21.6666C2.59984 21.6666 1.97206 21.4055 1.44984 20.8833C0.927615 20.361 0.666504 19.7333 0.666504 18.9999V2.99992C0.666504 2.26659 0.927615 1.63881 1.44984 1.11659C1.97206 0.594363 2.59984 0.333252 3.33317 0.333252H24.6665C25.3998 0.333252 26.0276 0.594363 26.5498 1.11659C27.0721 1.63881 27.3332 2.26659 27.3332 2.99992V18.9999C27.3332 19.7333 27.0721 20.361 26.5498 20.8833C26.0276 21.4055 25.3998 21.6666 24.6665 21.6666H3.33317ZM13.9998 12.0999C14.1109 12.0999 14.2276 12.0833 14.3498 12.0499C14.4721 12.0166 14.5887 11.9666 14.6998 11.8999L24.1332 5.99992C24.3109 5.88881 24.4443 5.74992 24.5332 5.58325C24.6221 5.41658 24.6665 5.23325 24.6665 5.03325C24.6665 4.58881 24.4776 4.25547 24.0998 4.03325C23.7221 3.81103 23.3332 3.82214 22.9332 4.06659L13.9998 9.66658L5.0665 4.06659C4.6665 3.82214 4.27761 3.81659 3.89984 4.04992C3.52206 4.28325 3.33317 4.61103 3.33317 5.03325C3.33317 5.25547 3.37762 5.44992 3.4665 5.61659C3.55539 5.78325 3.68873 5.91103 3.8665 5.99992L13.2998 11.8999C13.4109 11.9666 13.5276 12.0166 13.6498 12.0499C13.7721 12.0833 13.8887 12.0999 13.9998 12.0999Z" fill="white"/>
</svg>
