<svg width="320" height="215" viewBox="0 0 320 215" fill="none" xmlns="http://www.w3.org/2000/svg">
<g clip-path="url(#clip0_18_656)">
<path d="M60.3636 62.0606C77.5011 62.0606 91.3939 48.1679 91.3939 31.0303C91.3939 13.8927 77.5011 0 60.3636 0C43.226 0 29.3333 13.8927 29.3333 31.0303C29.3333 48.1679 43.226 62.0606 60.3636 62.0606Z" fill="#26A17B"/>
<path fill-rule="evenodd" clip-rule="evenodd" d="M64.0912 33.7124V33.7085C63.8778 33.7241 62.7782 33.79 60.3248 33.79C58.3661 33.79 56.9871 33.7318 56.5023 33.7085V33.7144C48.9619 33.3827 43.3338 32.0698 43.3338 30.4989C43.3338 28.9299 48.9619 27.6169 56.5023 27.2795V32.4072C56.9949 32.4421 58.4068 32.5255 60.3578 32.5255C62.6987 32.5255 63.872 32.4285 64.0912 32.4092V27.2833C71.616 27.6189 77.2305 28.9318 77.2305 30.4989C77.2305 32.0698 71.616 33.3788 64.0912 33.7124ZM64.0912 26.75V22.1614H74.591V15.1641H46.0024V22.1614H56.5023V26.7481C47.969 27.1398 41.5515 28.831 41.5515 30.8557C41.5515 32.8804 47.969 34.5696 56.5023 34.9633V49.6678H64.0912V34.9595C72.6109 34.5677 79.0128 32.8785 79.0128 30.8557C79.0128 28.8329 72.6109 27.1437 64.0912 26.75Z" fill="white"/>
</g>
<g clip-path="url(#clip1_18_656)">
<path d="M175.03 147.394C192.168 147.394 206.061 133.501 206.061 116.364C206.061 99.2261 192.168 85.3334 175.03 85.3334C157.893 85.3334 144 99.2261 144 116.364C144 133.501 157.893 147.394 175.03 147.394Z" fill="#23292F"/>
<path d="M188.742 100.849H194.347L182.681 112.401C180.642 114.411 177.894 115.537 175.03 115.537C172.167 115.537 169.419 114.411 167.38 112.401L155.704 100.849H161.319L170.182 109.62C171.473 110.894 173.213 111.609 175.027 111.609C176.84 111.609 178.58 110.894 179.871 109.62L188.742 100.849ZM161.251 132.971H155.636L167.38 121.348C169.419 119.338 172.167 118.212 175.03 118.212C177.894 118.212 180.642 119.338 182.681 121.348L194.424 132.969H188.81L179.879 124.121C178.588 122.847 176.848 122.133 175.034 122.133C173.221 122.133 171.48 122.847 170.19 124.121L161.249 132.971H161.251Z" fill="white"/>
</g>
<g clip-path="url(#clip2_18_656)">
<path d="M222.697 214.333C239.835 214.333 253.727 200.441 253.727 183.303C253.727 166.166 239.835 152.273 222.697 152.273C205.559 152.273 191.667 166.166 191.667 183.303C191.667 200.441 205.559 214.333 222.697 214.333Z" fill="#F7931A"/>
<path d="M236.639 179.463C237.248 175.398 234.151 173.212 229.919 171.754L231.292 166.246L227.941 165.412L226.603 170.775C225.722 170.553 224.819 170.348 223.917 170.142L225.265 164.745L221.913 163.909L220.54 169.415C219.811 169.248 219.094 169.085 218.399 168.911L218.403 168.893L213.78 167.739L212.888 171.319C212.888 171.319 215.376 171.89 215.323 171.925C216.681 172.264 216.925 173.162 216.885 173.876L215.321 180.15C215.415 180.173 215.535 180.208 215.671 180.26L215.316 180.173L213.124 188.962C212.957 189.373 212.537 189.992 211.586 189.757C211.621 189.806 209.15 189.15 209.15 189.15L207.486 192.986L211.85 194.074C212.661 194.278 213.456 194.491 214.237 194.691L212.851 200.261L216.2 201.095L217.573 195.587C218.489 195.833 219.377 196.062 220.246 196.279L218.876 201.764L222.228 202.598L223.614 197.04C229.332 198.122 233.629 197.686 235.439 192.515C236.897 188.353 235.367 185.95 232.359 184.385C234.551 183.881 236.199 182.44 236.639 179.463ZM228.979 190.203C227.945 194.367 220.934 192.116 218.661 191.551L220.504 184.172C222.777 184.74 230.063 185.863 228.979 190.203ZM230.016 179.403C229.072 183.191 223.238 181.265 221.347 180.793L223.015 174.103C224.906 174.574 231.001 175.452 230.016 179.403Z" fill="white"/>
</g>
<g clip-path="url(#clip3_18_656)">
<path d="M144.03 67.394C161.168 67.394 175.061 53.5012 175.061 36.3637C175.061 19.2261 161.168 5.33337 144.03 5.33337C126.893 5.33337 113 19.2261 113 36.3637C113 53.5012 126.893 67.394 144.03 67.394Z" fill="#F3BA2F"/>
<path d="M136.498 33.2684L144.03 25.7358L151.567 33.2723L155.95 28.8892L144.03 16.9697L132.115 28.8854L136.498 33.2684ZM124.636 36.3637L129.02 31.9806L133.403 36.3637L129.02 40.7467L124.636 36.3637ZM136.498 39.4589L144.03 46.9915L151.567 39.4551L155.95 43.8362L144.03 55.7576L132.115 43.842L132.109 43.8362L136.498 39.4589ZM154.658 36.3637L159.041 31.9806L163.424 36.3637L159.041 40.7467L154.658 36.3637ZM148.476 36.3598H148.479V36.3637L144.03 40.8126L139.587 36.3714L139.58 36.3637L139.587 36.3578L140.365 35.5782L140.743 35.2L144.03 31.9147L148.477 36.3617L148.476 36.3598Z" fill="white"/>
</g>
<g clip-path="url(#clip4_18_656)">
<path d="M31.0303 214.333C48.1679 214.333 62.0606 200.441 62.0606 183.303C62.0606 166.166 48.1679 152.273 31.0303 152.273C13.8927 152.273 0 166.166 0 183.303C0 200.441 13.8927 214.333 31.0303 214.333Z" fill="#3E73C4"/>
<path d="M38.8304 187.422C38.8304 183.303 36.348 181.891 31.3832 181.302C27.838 180.83 27.1301 179.89 27.1301 178.241C27.1301 176.593 28.3131 175.534 30.6753 175.534C32.8028 175.534 33.9858 176.24 34.5754 178.006C34.6369 178.177 34.7492 178.325 34.8972 178.43C35.0453 178.535 35.222 178.593 35.4035 178.594H37.2944C37.4037 178.597 37.5123 178.578 37.6139 178.537C37.7154 178.497 37.8077 178.437 37.8851 178.359C37.9626 178.282 38.0235 178.19 38.0643 178.089C38.1052 177.988 38.125 177.879 38.1226 177.77V177.654C37.8915 176.375 37.2447 175.209 36.2827 174.336C35.3208 173.463 34.0974 172.933 32.8028 172.826V170.003C32.8028 169.531 32.4479 169.178 31.8583 169.06H30.0838C29.6125 169.06 29.2576 169.413 29.1393 170.003V172.71C25.5921 173.179 23.3483 175.534 23.3483 178.478C23.3483 182.36 25.7105 183.891 30.6753 184.48C33.9858 185.068 35.0486 185.776 35.0486 187.659C35.0486 189.54 33.3943 190.836 31.1485 190.836C28.0746 190.836 27.0118 189.542 26.6569 187.775C26.5405 187.306 26.1837 187.069 25.8288 187.069H23.8195C23.7105 187.067 23.602 187.086 23.5007 187.127C23.3994 187.167 23.3074 187.228 23.2301 187.305C23.1529 187.382 23.0921 187.474 23.0514 187.575C23.0107 187.676 22.991 187.784 22.9934 187.894V188.01C23.4646 190.954 25.3575 193.072 29.2576 193.661V196.487C29.2576 196.956 29.6125 197.311 30.2021 197.428H31.9766C32.4479 197.428 32.8028 197.075 32.9211 196.487V193.659C36.4683 193.072 38.8304 190.599 38.8304 187.42V187.422Z" fill="white"/>
<path d="M25.0026 199.782C15.7827 196.485 11.0545 186.245 14.4833 177.182C16.2559 172.237 20.1561 168.473 25.0026 166.706C25.4758 166.471 25.7105 166.118 25.7105 165.529V163.88C25.7105 163.411 25.4758 163.058 25.0026 162.939C24.8843 162.939 24.6477 162.939 24.5294 163.056C21.8694 163.887 19.3999 165.235 17.2633 167.024C15.1266 168.813 13.365 171.007 12.0797 173.48C10.7945 175.952 10.011 178.655 9.7745 181.431C9.53796 184.208 9.85301 187.004 10.7015 189.658C12.8271 196.252 17.9102 201.314 24.5294 203.432C25.0026 203.667 25.4758 203.432 25.5922 202.961C25.7105 202.844 25.7105 202.724 25.7105 202.49V200.841C25.7105 200.488 25.3575 200.019 25.0026 199.782ZM37.5311 163.058C37.0579 162.821 36.5847 163.058 36.4683 163.527C36.35 163.645 36.35 163.764 36.35 163.998V165.647C36.35 166.118 36.703 166.587 37.0579 166.824C46.2778 170.121 51.006 180.361 47.5771 189.424C45.8045 194.369 41.9044 198.134 37.0579 199.9C36.5847 200.135 36.35 200.488 36.35 201.078V202.726C36.35 203.195 36.5847 203.548 37.0579 203.667C37.1762 203.667 37.4128 203.667 37.5311 203.55C40.1911 202.72 42.6605 201.371 44.7972 199.582C46.9338 197.793 48.6955 195.599 49.9807 193.126C51.266 190.654 52.0494 187.951 52.286 185.175C52.5225 182.398 52.2075 179.602 51.359 176.948C49.2334 170.237 44.0319 165.176 37.5311 163.058Z" fill="white"/>
</g>
<g clip-path="url(#clip5_18_656)">
<path fill-rule="evenodd" clip-rule="evenodd" d="M268.364 75.6365C285.502 75.6365 299.394 89.5286 299.394 106.667C299.394 123.805 285.502 137.697 268.364 137.697C251.225 137.697 237.333 123.805 237.333 106.667C237.333 89.5286 251.225 75.6365 268.364 75.6365Z" fill="url(#paint0_linear_18_656)"/>
<path d="M267.992 97.4583C267.069 97.4753 266.289 98.2608 266.305 99.1589C266.322 100.089 267.087 100.816 268.037 100.805C268.989 100.793 269.71 100.058 269.702 99.108C269.693 98.1759 268.932 97.4414 267.992 97.4583ZM257.348 97.4583C256.407 97.4305 255.632 98.1505 255.605 99.0789C255.577 100.02 256.296 100.773 257.245 100.797C258.185 100.821 258.973 100.101 259.008 99.1844C259.043 98.2717 258.247 97.485 257.348 97.4583ZM263.037 114.293C261.574 114.112 260.242 113.913 258.903 113.8C258.441 113.761 257.892 113.816 257.499 114.038C256.199 114.771 254.951 115.6 253.474 116.524C253.745 115.297 253.92 114.223 254.231 113.19C254.459 112.43 254.354 112.009 253.654 111.514C244.586 105.112 247.447 93.3347 257.59 90.0208C265.494 87.4389 275.412 91.9808 276.228 100.707C268.609 101.104 262.354 106.227 263.037 114.293Z" fill="white"/>
<path d="M279.842 108.19C279.11 108.186 278.488 108.784 278.458 109.524C278.427 110.315 279.041 110.964 279.824 110.966C280.58 110.969 281.179 110.396 281.206 109.643C281.236 108.85 280.62 108.197 279.842 108.19ZM272.551 109.641C272.582 108.852 271.948 108.19 271.157 108.187C270.376 108.184 269.721 108.855 269.748 109.632C269.773 110.373 270.399 110.975 271.148 110.976C271.896 110.976 272.524 110.393 272.551 109.641ZM281.206 122.593C280.053 122.473 278.841 123.138 277.635 123.261C273.962 123.636 270.671 122.613 267.957 120.103C262.797 115.33 263.534 108.011 269.505 104.1C274.812 100.623 282.595 101.782 286.336 106.605C289.601 110.815 289.217 116.403 285.231 119.94C283.371 121.589 284.151 122.115 284.635 124.033C283.564 123.556 282.376 122.715 281.206 122.593Z" fill="white"/>
</g>
<rect x="54.6667" y="75.6365" width="62.0606" height="62.0606" rx="31.0303" fill="white"/>
<path d="M101.708 93.6216C102.708 94.9318 103.555 96.3553 104.231 97.8634L85.0556 112.189L77.0417 107.098V100.973L85.0556 106.064L101.708 93.6216Z" fill="#21A038"/>
<path d="M68.8632 106.666C68.8632 106.391 68.8698 106.118 68.8831 105.847L64.0264 105.606C64.0099 105.957 64 106.313 64 106.671C63.9979 109.472 64.5415 112.245 65.5996 114.833C66.6577 117.42 68.2094 119.77 70.1658 121.749L73.6107 118.259C72.1048 116.739 70.9101 114.932 70.0954 112.943C69.2806 110.953 68.8619 108.82 68.8632 106.666Z" fill="url(#paint1_linear_18_656)"/>
<path d="M85.0516 90.2616C85.3227 90.2616 85.592 90.2717 85.8598 90.2851L86.1029 85.3614C85.7547 85.3447 85.4042 85.3363 85.0516 85.3363C82.2866 85.3329 79.5484 85.883 76.9939 86.9551C74.4394 88.0271 72.119 89.6 70.166 91.5834L73.6109 95.0747C75.1109 93.548 76.8938 92.3368 78.8572 91.5108C80.8206 90.6848 82.9257 90.2603 85.0516 90.2616Z" fill="url(#paint2_linear_18_656)"/>
<path d="M85.0515 123.072C84.7804 123.072 84.5109 123.072 84.2415 123.05L83.9985 127.972C84.3479 127.99 84.6989 127.999 85.0515 127.999C87.8153 128.002 90.5522 127.451 93.1053 126.379C95.6585 125.307 97.9773 123.733 99.9289 121.75L96.4905 118.26C94.9903 119.786 93.2076 120.997 91.2446 121.823C89.2816 122.648 87.1769 123.073 85.0515 123.072Z" fill="url(#paint3_linear_18_656)"/>
<path d="M94.1766 93.1234L98.2695 90.0661C94.5285 86.996 89.8589 85.3249 85.0452 85.3334V90.2604C88.3048 90.2563 91.4887 91.2546 94.1766 93.1234Z" fill="url(#paint4_linear_18_656)"/>
<path d="M106.101 106.667C106.104 105.385 105.993 104.106 105.771 102.844L101.24 106.228C101.24 106.374 101.24 106.519 101.24 106.667C101.241 108.959 100.767 111.226 99.8481 113.321C98.9294 115.415 97.5867 117.291 95.907 118.826L99.1751 122.487C101.359 120.489 103.104 118.048 104.297 115.323C105.49 112.597 106.105 109.648 106.101 106.667Z" fill="#21A038"/>
<path d="M85.0515 123.072C82.7895 123.073 80.5526 122.592 78.4854 121.661C76.4184 120.73 74.5674 119.37 73.0521 117.668L69.4419 120.978C71.4131 123.192 73.8213 124.96 76.5104 126.17C79.1995 127.379 82.1094 128.003 85.0515 127.999V123.072Z" fill="url(#paint5_linear_18_656)"/>
<path d="M74.1959 94.5068L70.9295 90.8463C68.7452 92.8439 66.9995 95.2844 65.8057 98.0097C64.6119 100.735 63.9967 103.684 64 106.666H68.8632C68.8622 104.374 69.3364 102.107 70.2551 100.012C71.1737 97.9176 72.5163 96.042 74.1959 94.5068Z" fill="url(#paint6_linear_18_656)"/>
<rect x="206.667" y="1.33337" width="61.3333" height="61.3333" rx="30.6667" fill="white"/>
<path d="M243.475 17.0667C235.053 17.0667 228.286 23.8799 228.286 32.2066C228.286 40.6021 235.12 47.3466 243.473 47.3466C251.827 47.3466 258.667 40.5334 258.667 32.2066C258.667 23.8799 251.828 17.0667 243.475 17.0667ZM243.475 37.8497C240.368 37.8497 237.815 35.3033 237.815 32.2066C237.815 29.11 240.368 26.5636 243.475 26.5636C246.581 26.5636 249.136 29.11 249.136 32.2066C249.066 35.3033 246.581 37.8497 243.475 37.8497ZM228.286 21.4655V43.4874H222.904L216 21.4655H228.286Z" fill="#8B3FFD"/>
<rect x="92" y="153" width="61.3333" height="61.3333" rx="30.6667" fill="#EF3124"/>
<path d="M108.866 199.262H137.084V205.133H108.866V199.262ZM117.26 185.406H128.39L130.269 191.309H136.44L128.111 166.493C127.306 164.111 126.373 162.2 123.185 162.2C119.997 162.2 119.02 164.078 118.183 166.493L109.468 191.298H115.253L117.26 185.406V185.406ZM122.906 168.64H123.045L126.791 180.447H118.956L122.906 168.64V168.64Z" fill="white"/>
<defs>
<linearGradient id="paint0_linear_18_656" x1="245.555" y1="85.6268" x2="294.811" y2="122.907" gradientUnits="userSpaceOnUse">
<stop stop-color="#3CAF41"/>
<stop offset="1" stop-color="#58C72C"/>
</linearGradient>
<linearGradient id="paint1_linear_18_656" x1="71.1494" y1="121.134" x2="65.7083" y2="105.614" gradientUnits="userSpaceOnUse">
<stop offset="0.14" stop-color="#F1E813"/>
<stop offset="0.3" stop-color="#E6E418"/>
<stop offset="0.58" stop-color="#C9DA26"/>
<stop offset="0.89" stop-color="#A2CC39"/>
</linearGradient>
<linearGradient id="paint2_linear_18_656" x1="71.5546" y1="92.4546" x2="85.2859" y2="87.2912" gradientUnits="userSpaceOnUse">
<stop offset="0.06" stop-color="#0FA7DF"/>
<stop offset="0.54" stop-color="#0098F8"/>
<stop offset="0.92" stop-color="#0290EA"/>
</linearGradient>
<linearGradient id="paint3_linear_18_656" x1="83.6779" y1="125.025" x2="99.1733" y2="121.571" gradientUnits="userSpaceOnUse">
<stop offset="0.12" stop-color="#A2CC39"/>
<stop offset="0.28" stop-color="#86C239"/>
<stop offset="0.87" stop-color="#219F38"/>
</linearGradient>
<linearGradient id="paint4_linear_18_656" x1="84.0336" y1="86.9836" x2="97.2948" y2="91.0216" gradientUnits="userSpaceOnUse">
<stop offset="0.06" stop-color="#0290EA"/>
<stop offset="0.79" stop-color="#0C89CA"/>
</linearGradient>
<linearGradient id="paint5_linear_18_656" x1="70.6618" y1="120.378" x2="85.1098" y2="125.706" gradientUnits="userSpaceOnUse">
<stop offset="0.13" stop-color="#F1E813"/>
<stop offset="0.3" stop-color="#EAE616"/>
<stop offset="0.53" stop-color="#D8DF1F"/>
<stop offset="0.8" stop-color="#BAD52D"/>
<stop offset="0.98" stop-color="#A2CC39"/>
</linearGradient>
<linearGradient id="paint6_linear_18_656" x1="65.8117" y1="107.262" x2="71.7284" y2="92.0753" gradientUnits="userSpaceOnUse">
<stop offset="0.07" stop-color="#A2CC39"/>
<stop offset="0.26" stop-color="#81C45E"/>
<stop offset="0.92" stop-color="#0FA7DF"/>
</linearGradient>
<clipPath id="clip0_18_656">
<rect width="62.0606" height="62.0606" fill="white" transform="translate(29.3333)"/>
</clipPath>
<clipPath id="clip1_18_656">
<rect width="62.0606" height="62.0606" fill="white" transform="translate(144 85.3334)"/>
</clipPath>
<clipPath id="clip2_18_656">
<rect width="62.0606" height="62.0606" fill="white" transform="translate(191.667 152.273)"/>
</clipPath>
<clipPath id="clip3_18_656">
<rect width="62.0606" height="62.0606" fill="white" transform="translate(113 5.33337)"/>
</clipPath>
<clipPath id="clip4_18_656">
<rect width="62.0606" height="62.0606" fill="white" transform="translate(0 152.273)"/>
</clipPath>
<clipPath id="clip5_18_656">
<rect width="62.0606" height="62.0606" fill="white" transform="translate(237.333 75.6365)"/>
</clipPath>
</defs>
</svg>
