<svg width="1140" height="703" viewBox="0 0 1140 703" fill="none" xmlns="http://www.w3.org/2000/svg">
<g opacity="0.2">
<path d="M356.477 609.737C321.222 609.737 287.254 603.32 255.504 590.658C223.917 578.071 195.449 560.376 170.89 538.067C146.168 515.607 126.311 488.389 111.856 457.177C97.3165 425.773 89.9441 391.36 89.9441 354.892C89.9441 316.961 96.8148 281.584 110.358 249.748C123.9 217.955 142.814 190.015 166.588 166.7C190.397 143.325 218.932 125.02 251.407 112.3C283.743 99.658 318.805 93.2518 355.631 93.2518C393.835 93.2518 430.231 100.609 463.813 115.116C490.928 126.843 515.577 142.331 537.32 161.281L572.152 120.126C545.919 96.3847 515.794 77.0808 482.389 62.6352C443.726 45.9215 401.364 37.4497 356.477 37.4497C343.466 37.4497 330.462 38.1871 317.82 39.6496L313.59 2.44432C327.633 0.822803 342.058 0 356.477 0C406.422 0 453.702 9.49636 497.013 28.215C540.19 46.8848 578.485 72.8937 610.842 105.528L622.973 117.761L539.949 215.846L525.748 201.528C503.999 179.591 478.238 162.104 449.183 149.536C420.261 137.04 388.783 130.701 355.631 130.701C323.415 130.701 292.868 136.26 264.835 147.213C237.049 158.099 212.702 173.685 192.482 193.538C172.22 213.408 156.073 237.29 144.476 264.523C132.928 291.66 127.073 322.063 127.073 354.892C127.073 385.844 133.273 414.921 145.498 441.327C157.831 467.98 174.733 491.157 195.739 510.236C216.998 529.543 241.697 544.89 269.149 555.831C296.537 566.752 325.917 572.287 356.477 572.287C386.034 572.287 414.085 567.302 439.846 557.47C462.961 548.664 484.051 536.58 502.663 521.501V434.235H428.709L373.283 305.215H631.41V569.816H594.281V342.665H429.833L453.087 396.785H539.791V538.797L533.392 544.395C509.945 564.92 482.884 581.101 452.971 592.496C423.01 603.933 390.535 609.737 356.477 609.737Z" fill="white"/>
<path d="M356.102 703C306.151 703 258.972 693.657 215.868 675.231C172.896 656.861 134.952 631.268 103.087 599.175C71.2049 567.048 45.7939 528.669 27.5621 485.105C9.27632 441.444 0 394.066 0 344.292H37.1285C37.1285 389.039 45.4191 431.509 61.7655 470.535C78.1241 509.623 100.852 543.989 129.327 572.673C157.801 601.358 191.793 624.266 230.359 640.756C268.853 657.205 311.16 665.55 356.102 665.55V703Z" fill="white"/>
<path d="M1140 686.468H663.262V217.577H700.39V649.019H1102.87V574.477H1140V686.468Z" fill="white"/>
<path d="M938.302 593.205H754.878V53.9796H681.822V16.5305H792.006V555.756H938.302V593.205Z" fill="white"/>
</g>
</svg>
