<svg width="65" height="40" viewBox="0 0 65 40" fill="none" xmlns="http://www.w3.org/2000/svg">
<path d="M20.3255 34.6934C18.3153 34.6934 16.3786 34.3283 14.5682 33.6078C12.7672 32.8917 11.144 31.8848 9.74377 30.6155C8.33416 29.3375 7.20196 27.7888 6.37778 26.0129C5.54878 24.2261 5.12842 22.268 5.12842 20.193C5.12842 18.0348 5.52017 16.0218 6.29235 14.2104C7.06448 12.4015 8.14294 10.8116 9.49844 9.48505C10.856 8.15503 12.483 7.11354 14.3346 6.38974C16.1784 5.67044 18.1775 5.30594 20.2772 5.30594C22.4555 5.30594 24.5308 5.72454 26.4455 6.54997C27.9915 7.21724 29.397 8.09849 30.6367 9.17673L32.6227 6.83503C31.127 5.48419 29.4093 4.38582 27.5046 3.56388C25.3002 2.61289 22.8848 2.13085 20.3255 2.13085C19.5836 2.13085 18.8421 2.17281 18.1213 2.25602L17.8801 0.139079C18.6809 0.0468167 19.5033 0 20.3255 0C23.1732 0 25.869 0.540333 28.3385 1.60541C30.8003 2.6677 32.9838 4.14758 34.8287 6.00443L35.5204 6.70049L30.7866 12.2814L29.9769 11.4668C28.7368 10.2186 27.268 9.22354 25.6113 8.50844C23.9623 7.79745 22.1675 7.43675 20.2772 7.43675C18.4404 7.43675 16.6987 7.75307 15.1003 8.3763C13.516 8.99569 12.1278 9.88251 10.9749 11.0121C9.81959 12.1427 8.89892 13.5015 8.23771 15.0511C7.57927 16.5951 7.24539 18.3251 7.24539 20.193C7.24539 21.9542 7.59892 23.6086 8.29594 25.1111C8.99919 26.6276 9.9629 27.9463 11.1606 29.0319C12.3727 30.1305 13.781 31.0037 15.3463 31.6262C16.9078 32.2476 18.583 32.5626 20.3255 32.5626C22.0107 32.5626 23.6101 32.2789 25.079 31.7195C26.3969 31.2184 27.5994 30.5309 28.6606 29.6729V24.7075H24.444L21.2837 17.3664H36.0015V32.4219H33.8845V19.4973H24.508L25.8339 22.5767H30.7776V30.657L30.4127 30.9755C29.0759 32.1434 27.5329 33.0641 25.8273 33.7124C24.119 34.3632 22.2674 34.6934 20.3255 34.6934Z" fill="white"/>
<path d="M20.3041 40C17.456 40 14.766 39.4683 12.3083 38.4199C9.85813 37.3747 7.69464 35.9185 5.87779 34.0924C4.05993 32.2644 2.61105 30.0807 1.57152 27.6019C0.528913 25.1177 0 22.4219 0 19.5898H2.11698C2.11698 22.1359 2.58969 24.5524 3.52172 26.7729C4.45445 28.997 5.75032 30.9524 7.37388 32.5845C8.9974 34.2166 10.9356 35.52 13.1345 36.4583C15.3293 37.3943 17.7416 37.8691 20.3041 37.8691V40Z" fill="white"/>
<path d="M65.0001 39.0593H37.8176V12.3799H39.9346V36.9285H62.8831V32.6872H65.0001V39.0593Z" fill="white"/>
<path d="M53.4996 33.7529H43.0412V3.07149H38.8757V0.940674H45.1582V31.622H53.4996V33.7529Z" fill="white"/>
</svg>
