<svg width="16" height="16" viewBox="0 0 16 16" fill="none" xmlns="http://www.w3.org/2000/svg">
<path d="M5.9175 11.835C4.26363 11.835 2.86407 11.2621 1.71881 10.1162C0.573542 8.97032 0.000607404 7.57075 4.81685e-07 5.9175C-0.000606441 4.26424 0.572328 2.86467 1.71881 1.71881C2.86528 0.572935 4.26485 0 5.9175 0C7.57015 0 8.97001 0.572935 10.1171 1.71881C11.2642 2.86467 11.8368 4.26424 11.835 5.9175C11.835 6.58511 11.7288 7.21479 11.5164 7.80654C11.3039 8.39829 11.0156 8.92176 10.6515 9.37696L15.7496 14.4751C15.9165 14.642 16 14.8544 16 15.1124C16 15.3703 15.9165 15.5827 15.7496 15.7496C15.5827 15.9165 15.3703 16 15.1124 16C14.8544 16 14.642 15.9165 14.4751 15.7496L9.37696 10.6515C8.92176 11.0156 8.39829 11.3039 7.80654 11.5164C7.21479 11.7288 6.58511 11.835 5.9175 11.835ZM5.9175 10.0142C7.05548 10.0142 8.02291 9.61608 8.8198 8.8198C9.61669 8.02352 10.0148 7.05608 10.0142 5.9175C10.0136 4.77891 9.61548 3.81178 8.8198 3.0161C8.02413 2.22043 7.05669 1.82198 5.9175 1.82077C4.7783 1.81955 3.81117 2.218 3.0161 3.0161C2.22103 3.81421 1.82259 4.78134 1.82077 5.9175C1.81895 7.05366 2.21739 8.02109 3.0161 8.8198C3.81481 9.61851 4.78194 10.0167 5.9175 10.0142Z" fill="white"/>
</svg>
